<svg width="100%" height="100%" overflow="visible" style="display: block;" viewBox="0 0 75.6718 79.583" fill="none" xmlns="http://www.w3.org/2000/svg">
<g id="Group 5028">
<path id="Vector" d="M51.7489 38.4391C62.0632 38.3711 70.5061 46.7041 70.5741 57.0182C70.642 67.3294 62.3093 75.7754 51.995 75.8434C41.6838 75.9114 33.2378 67.5787 33.1698 57.2643C33.1018 46.95 41.4347 38.5071 51.7489 38.4391Z" fill="var(--fill-0, #FF63F6)" stroke="var(--stroke-0, #0B2595)" stroke-width="4.22932" stroke-linejoin="round"/>
<path id="Vector_2" d="M23.0516 28.7359C30.7346 28.9614 37.3548 33.4596 40.6092 39.939C41.0894 40.8898 41.4848 41.8767 41.8055 42.8834C42.059 43.6797 41.8199 44.5509 41.1951 45.106C37.8429 48.0846 35.7452 52.4242 35.7782 57.2505C35.7782 57.2587 35.7772 57.2668 35.7772 57.275C35.7899 58.9386 36.0527 60.5345 36.5311 62.0328C36.7853 62.8288 36.5468 63.6998 35.9227 64.2554C35.1306 64.9606 34.2846 65.5975 33.3992 66.1675L33.3953 66.1705C30.271 68.1732 26.5573 69.3489 22.5731 69.3746H22.5721C11.3482 69.4503 2.18895 60.4092 2.11507 49.1861C2.04137 37.9622 11.08 28.8009 22.3045 28.7271L23.0516 28.7359Z" fill="var(--fill-0, #FF63F6)" stroke="var(--stroke-0, #0B2595)" stroke-width="4.22932" stroke-linejoin="round"/>
<path id="Vector_3" d="M50.4413 2.16604C51.214 1.99333 52.0249 2.26692 52.5341 2.88479L54.3739 5.11721C59.0924 5.41486 63.1626 6.72581 66.3651 9.15725L66.6933 9.41213L66.7353 9.44729L66.7899 9.49319C66.8202 9.51867 66.85 9.54515 66.8788 9.57229C70.7412 13.2139 72.8657 18.6031 73.4687 25.2744C73.4688 25.2757 73.4685 25.2771 73.4687 25.2783L73.5487 26.1709C73.6003 26.7436 73.4159 27.3129 73.039 27.7471C72.6621 28.181 72.1247 28.4432 71.5507 28.4727L70.6552 28.5186H70.6542C63.9606 28.8591 58.3257 27.516 54.1815 24.2061C54.1525 24.1829 54.1234 24.1595 54.0956 24.1348L54.0448 24.0889C54.0299 24.0756 54.0144 24.0616 53.9999 24.0479C52.6003 22.731 51.4276 21.1761 50.4716 19.4131C50.177 20.217 49.9148 21.023 49.6884 21.8301C47.6989 28.9221 48.4165 35.6869 51.8759 42.0928C51.9426 42.0491 52.012 42.0089 52.0839 41.9727L53.622 41.1973L53.8134 41.1123C54.2674 40.9374 54.7701 40.9243 55.2362 41.0781C55.7688 41.254 56.2105 41.6338 56.4628 42.1348C57.6961 44.5841 56.9796 47.3555 55.3388 49.3946C55.2282 49.5942 55.0863 49.7807 54.9081 49.9414L54.3222 50.4698C53.6574 51.0709 52.9078 51.5725 52.1103 51.9766L52.1093 51.9776C51.5083 52.2817 50.8819 52.5198 50.2548 52.6953L50.248 52.6973L49.6767 52.8555C49.5104 52.9014 49.3419 52.9249 49.1747 52.9297C48.6981 53.0073 48.2141 53.0518 47.7294 53.0518C45.2711 53.0517 42.7795 51.9688 41.5995 49.6182C41.0762 48.5756 41.4962 47.3063 42.538 46.7813L43.6689 46.211C38.1451 35.7493 38.9549 25.9579 40.869 19.2158L41.0624 18.5547C41.2916 17.7954 41.5381 17.06 41.7958 16.3506C41.6721 16.4372 41.548 16.5234 41.4257 16.6114H41.4247C34.8507 21.3367 30.7817 27.5653 29.244 35.2676C29.2771 35.2738 29.3105 35.2793 29.3437 35.2871L31.0204 35.6856C32.1561 35.9559 32.8574 37.0957 32.5878 38.2315C31.7897 41.5929 28.4045 43.2343 25.246 43.2344C24.4782 43.2344 23.6954 43.1425 22.9189 42.96L22.914 42.959C20.8402 42.4669 19.0368 41.3633 17.8222 39.8867C16.6072 38.4097 15.9091 36.4433 16.3925 34.3955L16.4501 34.1944C16.6081 33.7341 16.9212 33.3401 17.3388 33.0821C17.8159 32.7873 18.3906 32.6944 18.9364 32.8233L20.3017 33.1446C22.8619 20.9487 30.1132 13.3911 36.1718 9.06545L36.6864 8.70315C41.9963 5.02403 47.1029 3.16788 49.7421 2.37112V2.37209L50.287 2.20608L50.4413 2.16604ZM52.2646 49.8926C52.2655 49.892 52.2673 49.8924 52.2685 49.8916C52.2745 49.8877 52.2827 49.8818 52.2929 49.875L52.2646 49.8926ZM53.8105 11.1094L53.9648 11.8233C54.7728 15.312 56.177 17.8952 58.0292 19.6612C60.1855 21.3335 63.1713 22.3634 67.0829 22.5801C66.3163 18.7278 64.8686 15.9085 62.8974 14.0049C60.7398 12.3203 57.7365 11.273 53.7997 11.0567L53.8105 11.1094Z" fill="var(--fill-0, #0B2595)" stroke="var(--stroke-0, #0B2595)" stroke-width="4.22932" stroke-linejoin="round"/>
<path id="Vector_4" d="M9.63565 45.5903C11.5903 45.5903 13.1711 47.1679 13.1855 49.1157V49.1176C13.2019 51.5862 14.1776 53.8949 15.9442 55.6381H15.9433C17.6963 57.3678 19.9944 58.31 22.4394 58.31H22.5253C24.4801 58.31 26.0609 59.8885 26.0751 61.8364C26.0894 63.8033 24.5029 65.3963 22.5497 65.4106H22.4364C22.3962 65.4106 22.3562 65.408 22.3163 65.4057C18.0412 65.3742 14.0107 63.7034 10.9579 60.6899C7.8506 57.6221 6.11551 53.5234 6.08584 49.1625L6.08682 49.1616C6.07382 47.1957 7.65883 45.6046 9.61123 45.5903H9.63565Z" fill="var(--fill-0, #FFFFFF)" stroke="var(--stroke-0, #0B2595)" stroke-width="4.22932" stroke-linejoin="round"/>
<path id="Vector_5" d="M39.0686 53.6801C41.0233 53.6802 42.6041 55.2578 42.6184 57.2055V57.2075C42.6349 59.6761 43.6105 61.9847 45.3772 63.728H45.3762C47.1295 65.4578 49.4276 66.3999 51.8694 66.3999H51.9553C53.9101 66.3999 55.4909 67.9784 55.5051 69.9262C55.5194 71.8932 53.9329 73.4861 51.9797 73.5004H51.8665C51.8334 73.5004 51.8006 73.4971 51.7678 73.4956C47.4889 73.4688 43.4482 71.7978 40.3909 68.7797C37.2836 65.7119 35.5485 61.6133 35.5188 57.2524L35.5198 57.2514C35.5068 55.2855 37.0918 53.6945 39.0442 53.6801H39.0686Z" fill="var(--fill-0, #FFFFFF)" stroke="var(--stroke-0, #0B2595)" stroke-width="4.22932" stroke-linejoin="round"/>
<path id="Vector_6" d="M51.7391 36.8197C62.963 36.746 72.1242 45.7847 72.198 57.0092C72.2717 68.233 63.233 77.3942 52.0086 77.4681C40.7847 77.5418 31.6235 68.5031 31.5496 57.2787C31.4759 46.0548 40.5146 36.8935 51.7391 36.8197ZM51.7332 42.6683C43.7753 42.7482 37.3489 49.2759 37.4012 57.2387C37.4538 65.2171 43.9903 71.669 51.9685 71.6166C59.9471 71.564 66.3991 65.0266 66.3465 57.0482C66.2936 49.0699 59.7564 42.6187 51.7781 42.6713C51.7631 42.6714 51.7482 42.6686 51.7332 42.6683Z" fill="var(--fill-0, #0B2595)" stroke="var(--stroke-0, #0B2595)" stroke-width="4.22932" stroke-linejoin="round"/>
<path id="Vector_7" d="M23.0532 28.7418C30.7362 28.9673 37.3564 33.4655 40.6108 39.9449C41.0903 40.8943 41.4858 41.8781 41.8071 42.8863C42.0616 43.6856 41.8193 44.5602 41.1899 45.1149C40.7903 45.467 40.4056 45.8459 40.0336 46.2486C39.5102 46.8154 38.719 47.0527 37.9702 46.8668C37.2215 46.6809 36.6337 46.1017 36.436 45.3561C36.1814 44.3957 35.8358 43.4681 35.3881 42.5777V42.5768C34.1896 40.1923 32.3615 38.1852 30.0991 36.7721L30.0981 36.7711C27.9244 35.4111 25.435 34.6615 22.8608 34.5875L22.3452 34.5817C14.3672 34.6345 7.91878 41.1679 7.97114 49.149C8.02373 57.1303 14.5599 63.5808 22.5375 63.5289C25.116 63.5101 27.6148 62.818 29.8061 61.5182L30.2407 61.2496C31.0761 60.7123 31.8397 60.1036 32.5278 59.4361C32.6907 59.2679 32.8844 59.1254 33.103 59.0162L33.1088 59.0133C34.0404 58.5483 35.1718 58.8302 35.7758 59.6783C35.975 59.9581 36.0953 60.2722 36.143 60.5934C36.2493 61.0832 36.3798 61.567 36.5317 62.0465C36.7839 62.843 36.5427 63.7131 35.9174 64.2672C35.1321 64.9632 34.2894 65.6033 33.3959 66.1754L33.3969 66.1764C30.2726 68.1791 26.5589 69.3549 22.5747 69.3805H22.5737C11.3496 69.4562 2.19053 60.4121 2.11664 49.192C2.04295 37.9712 11.0814 28.8068 22.3061 28.733L23.0532 28.7418Z" fill="var(--fill-0, #0B2595)" stroke="var(--stroke-0, #0B2595)" stroke-width="4.22932" stroke-linejoin="round"/>
<rect id="Rectangle 2178" x="31.3117" y="20.4419" width="11.2782" height="17.6222" fill="var(--fill-0, #FFFFFF)"/>
<g id="Group">
<g id="Vector_8">
<mask id="path-9-outside-1_277_85182" maskUnits="userSpaceOnUse" x="18.3306" y="1.21237" width="56" height="52" fill="black">
<rect fill="white" x="18.3306" y="1.21237" width="56" height="52"/>
<path d="M69.5533 24.7175C64.0586 24.8611 59.7036 23.6898 56.6031 21.2266C54.2146 18.9645 52.5754 15.7004 51.7343 11.5262L51.2979 9.34728L50.1524 11.2506C48.3037 14.3339 46.9027 17.5434 45.9927 20.7903C43.2798 30.4677 45.0108 39.6514 51.14 48.0973C51.14 48.0973 51.1257 48.1088 51.1199 48.1117C51.0883 48.1346 51.0568 48.1547 51.0252 48.172C50.9936 48.1921 50.962 48.2121 50.9304 48.2322C50.8845 48.2609 50.8414 48.2925 50.7926 48.3212C50.7438 48.3499 50.695 48.3787 50.6434 48.4074C50.606 48.4275 50.5687 48.4476 50.5285 48.4676C50.5027 48.4791 50.4768 48.4935 50.4539 48.5078C50.4309 48.5222 50.4051 48.5365 50.3792 48.548C50.362 48.5566 50.3477 48.5653 50.3304 48.571C50.3132 48.5767 50.296 48.5853 50.2788 48.594C50.1266 48.6715 49.9658 48.7404 49.808 48.8035C49.8051 48.8035 49.8022 48.8064 49.7993 48.8064C49.7936 48.8064 49.7907 48.8093 49.785 48.8121C49.4376 48.3241 49.1075 47.8389 48.7917 47.3566C48.5793 47.0322 48.3783 46.7107 48.1831 46.3892C47.3046 44.9423 46.564 43.5098 45.9467 42.0945C45.8089 41.7787 45.6769 41.4658 45.5534 41.1529C45.3008 40.527 45.0769 39.9069 44.873 39.2897C44.7381 38.8792 44.6118 38.4715 44.4941 38.0639C44.4338 37.86 44.3793 37.6591 44.3247 37.4553C44.2185 37.0534 44.1209 36.6514 44.029 36.2524C43.8941 35.6524 43.7793 35.0581 43.6845 34.4725C43.6214 34.0821 43.564 33.6945 43.5152 33.3098C42.8865 28.3032 43.5554 23.8132 44.563 20.2592C45.8348 15.7807 47.7898 12.1377 49.208 9.8669L50.6003 7.63916L48.1572 8.61236C44.9219 9.89848 41.9046 11.5434 39.1889 13.4927C38.0721 14.2937 37.0214 15.1348 36.0339 16.0161C35.9104 16.1281 35.787 16.2372 35.6664 16.3492C35.0951 16.8716 34.5468 17.4085 34.0186 17.9597C33.9152 18.0659 33.8147 18.175 33.7114 18.2841C33.4903 18.5224 33.2722 18.7635 33.0597 19.0046C32.9592 19.1195 32.8588 19.2343 32.7612 19.3491C32.5516 19.5932 32.3506 19.8372 32.1497 20.0841C32.0492 20.2046 31.9545 20.3281 31.8597 20.4487C31.7621 20.5721 31.6645 20.6955 31.5726 20.819C31.4779 20.9424 31.386 21.0688 31.2942 21.1922C31.1994 21.3156 31.1104 21.442 31.0186 21.5683C30.8406 21.818 30.6626 22.0707 30.4903 22.3262C30.4875 22.329 30.4846 22.3348 30.4817 22.3405C30.3985 22.4668 30.3152 22.5931 30.232 22.7195C30.143 22.8486 30.0597 22.9778 29.9793 23.1099C29.7296 23.5003 29.4913 23.8965 29.2616 24.2984C29.1841 24.4333 29.1095 24.5683 29.0349 24.7032C28.8827 24.973 28.7363 25.2458 28.5956 25.5214C28.5267 25.6592 28.455 25.797 28.3861 25.9348C28.3172 26.0726 28.2483 26.2103 28.1822 26.351C28.1162 26.4917 28.0502 26.6324 27.9841 26.773C27.9152 26.9137 27.8521 27.0544 27.7918 27.195C27.7258 27.3357 27.6626 27.4792 27.6052 27.6228C27.4818 27.9099 27.3612 28.1969 27.2463 28.4869C27.0081 29.0926 26.7841 29.707 26.5775 30.3328C26.4885 30.6055 26.3995 30.8811 26.3191 31.1596C26.1784 31.6161 26.0521 32.0754 25.9315 32.5405C25.8511 32.8505 25.7765 33.1634 25.7047 33.4792C25.5583 34.1079 25.432 34.7452 25.32 35.3912C25.2913 35.5548 25.2626 35.7156 25.2368 35.8792C25.211 36.0428 25.1851 36.2065 25.1621 36.3701C25.1449 36.4792 25.1277 36.5912 25.1133 36.7031C25.0818 36.9213 25.0531 37.1395 25.0272 37.3577C24.9928 37.639 24.9612 37.9203 24.9325 38.2045C24.921 38.3136 24.9095 38.4227 24.9009 38.5347C24.8837 38.7069 24.8693 38.8792 24.855 39.0514C24.8464 39.1576 24.8377 39.2667 24.8291 39.3758C24.4932 39.3529 24.1488 39.3069 23.8043 39.2237C23.6435 39.1864 23.4856 39.1404 23.3306 39.0916C23.3449 38.9136 23.3593 38.7356 23.3765 38.5605C23.3765 38.5376 23.3794 38.5203 23.3823 38.5031C23.3966 38.3423 23.411 38.1845 23.4282 38.0294V38.0237C23.4626 37.6792 23.5028 37.3376 23.5459 36.9988C23.5488 36.9959 23.5488 36.9902 23.5488 36.9873V36.9758C23.5717 36.8093 23.5947 36.6428 23.6177 36.4763C23.6406 36.3069 23.6665 36.1404 23.6923 35.9768V35.9682C23.6923 35.9682 23.6952 35.9624 23.6952 35.9596C23.6952 35.951 23.698 35.9395 23.698 35.928C23.7124 35.839 23.7267 35.75 23.744 35.661C23.7526 35.5979 23.7641 35.5318 23.7756 35.4687V35.4629C23.8014 35.2993 23.8301 35.1357 23.8617 34.9749V34.9663C23.876 34.8945 23.8875 34.8227 23.9019 34.751C23.9191 34.662 23.9363 34.5701 23.9535 34.4811C23.9708 34.3979 23.9851 34.3146 24.0023 34.2342C24.0511 33.9931 24.1028 33.7548 24.1545 33.5165V33.5108C24.209 33.2754 24.2636 33.0371 24.321 32.8017C24.3325 32.7558 24.344 32.707 24.3555 32.661C24.3727 32.5778 24.3928 32.4974 24.4157 32.4141C24.4301 32.3625 24.4444 32.3079 24.4588 32.2563C24.4703 32.2074 24.4846 32.1586 24.4961 32.1098V32.1041C24.5076 32.0697 24.5162 32.0381 24.5248 32.0036C24.5306 31.9778 24.5392 31.9491 24.5449 31.9232C24.5909 31.7539 24.6368 31.5874 24.6856 31.4208C24.72 31.2917 24.7574 31.1653 24.7976 31.039C24.8033 31.0103 24.8148 30.9787 24.8234 30.95C24.8349 30.9098 24.8464 30.8668 24.8607 30.8266C24.8923 30.7204 24.9239 30.6142 24.9612 30.5079C24.9641 30.4907 24.9698 30.4706 24.9755 30.4534C24.9899 30.4046 25.0043 30.3558 25.0215 30.307C25.0301 30.2725 25.0416 30.241 25.0559 30.2065C25.0559 30.2065 25.0559 30.2008 25.0588 30.1979C25.1392 29.9424 25.2253 29.6869 25.3114 29.4371C25.4004 29.1845 25.4894 28.9405 25.5784 28.6965C25.5928 28.6591 25.6042 28.6218 25.6186 28.5874C25.6387 28.5328 25.6588 28.4783 25.6818 28.4266C25.699 28.3807 25.7162 28.3376 25.7306 28.2974C25.7564 28.2343 25.7794 28.1711 25.8052 28.1079C25.8196 28.0735 25.831 28.039 25.8454 28.0075C25.8598 27.9644 25.877 27.9185 25.8942 27.8783C25.9114 27.8381 25.9258 27.7979 25.943 27.7606C25.9688 27.6946 25.9947 27.6285 26.0234 27.5654C26.0664 27.462 26.1095 27.3587 26.1526 27.2582C26.1956 27.1548 26.2416 27.0544 26.2846 26.951C26.3736 26.7501 26.4626 26.552 26.5516 26.3568C26.5602 26.3367 26.5688 26.3194 26.5775 26.2993C26.5861 26.2793 26.5975 26.2563 26.6062 26.2362C26.6435 26.1587 26.6779 26.0812 26.7152 26.0037C26.7411 25.9462 26.7698 25.8888 26.7985 25.8314C26.8186 25.7855 26.8416 25.7367 26.8645 25.6907C26.8846 25.6505 26.9019 25.6104 26.9248 25.5702C26.9507 25.5127 26.9794 25.4553 27.0052 25.4008C27.0224 25.3692 27.0368 25.3376 27.0511 25.3089C27.166 25.0821 27.2779 24.8611 27.3956 24.64C27.6339 24.1836 27.8808 23.7386 28.1392 23.3051C28.2224 23.1616 28.3085 23.018 28.3947 22.8745C28.4808 22.7338 28.5669 22.5931 28.6559 22.4525C28.742 22.3118 28.831 22.174 28.92 22.0362C29.0865 21.7778 29.2588 21.5223 29.4282 21.2697C29.6234 20.9884 29.8186 20.7128 30.0138 20.4429C30.2033 20.1845 30.3899 19.9319 30.5822 19.685C30.677 19.5616 30.7717 19.4381 30.8693 19.3176C30.9669 19.197 31.0616 19.0764 31.1592 18.9558C31.2569 18.8381 31.3545 18.7204 31.4521 18.6027C31.5497 18.485 31.6473 18.3702 31.7449 18.2554C31.9143 18.0602 32.0836 17.8678 32.2501 17.6783C32.5918 17.2994 32.9363 16.9319 33.2808 16.576C33.3698 16.4841 33.4588 16.3951 33.5477 16.3061C35.1698 14.6726 36.8291 13.3119 38.4051 12.1894C43.1018 8.83341 47.6922 7.04777 50.3075 6.21237L52.5094 8.88508L52.9055 8.8937C57.6567 8.99705 61.4806 10.1712 64.271 12.3875C67.1476 15.1147 68.9217 19.2602 69.5533 24.7175Z"/>
</mask>
<path d="M69.5533 24.7175C64.0586 24.8611 59.7036 23.6898 56.6031 21.2266C54.2146 18.9645 52.5754 15.7004 51.7343 11.5262L51.2979 9.34728L50.1524 11.2506C48.3037 14.3339 46.9027 17.5434 45.9927 20.7903C43.2798 30.4677 45.0108 39.6514 51.14 48.0973C51.14 48.0973 51.1257 48.1088 51.1199 48.1117C51.0883 48.1346 51.0568 48.1547 51.0252 48.172C50.9936 48.1921 50.962 48.2121 50.9304 48.2322C50.8845 48.2609 50.8414 48.2925 50.7926 48.3212C50.7438 48.3499 50.695 48.3787 50.6434 48.4074C50.606 48.4275 50.5687 48.4476 50.5285 48.4676C50.5027 48.4791 50.4768 48.4935 50.4539 48.5078C50.4309 48.5222 50.4051 48.5365 50.3792 48.548C50.362 48.5566 50.3477 48.5653 50.3304 48.571C50.3132 48.5767 50.296 48.5853 50.2788 48.594C50.1266 48.6715 49.9658 48.7404 49.808 48.8035C49.8051 48.8035 49.8022 48.8064 49.7993 48.8064C49.7936 48.8064 49.7907 48.8093 49.785 48.8121C49.4376 48.3241 49.1075 47.8389 48.7917 47.3566C48.5793 47.0322 48.3783 46.7107 48.1831 46.3892C47.3046 44.9423 46.564 43.5098 45.9467 42.0945C45.8089 41.7787 45.6769 41.4658 45.5534 41.1529C45.3008 40.527 45.0769 39.9069 44.873 39.2897C44.7381 38.8792 44.6118 38.4715 44.4941 38.0639C44.4338 37.86 44.3793 37.6591 44.3247 37.4553C44.2185 37.0534 44.1209 36.6514 44.029 36.2524C43.8941 35.6524 43.7793 35.0581 43.6845 34.4725C43.6214 34.0821 43.564 33.6945 43.5152 33.3098C42.8865 28.3032 43.5554 23.8132 44.563 20.2592C45.8348 15.7807 47.7898 12.1377 49.208 9.8669L50.6003 7.63916L48.1572 8.61236C44.9219 9.89848 41.9046 11.5434 39.1889 13.4927C38.0721 14.2937 37.0214 15.1348 36.0339 16.0161C35.9104 16.1281 35.787 16.2372 35.6664 16.3492C35.0951 16.8716 34.5468 17.4085 34.0186 17.9597C33.9152 18.0659 33.8147 18.175 33.7114 18.2841C33.4903 18.5224 33.2722 18.7635 33.0597 19.0046C32.9592 19.1195 32.8588 19.2343 32.7612 19.3491C32.5516 19.5932 32.3506 19.8372 32.1497 20.0841C32.0492 20.2046 31.9545 20.3281 31.8597 20.4487C31.7621 20.5721 31.6645 20.6955 31.5726 20.819C31.4779 20.9424 31.386 21.0688 31.2942 21.1922C31.1994 21.3156 31.1104 21.442 31.0186 21.5683C30.8406 21.818 30.6626 22.0707 30.4903 22.3262C30.4875 22.329 30.4846 22.3348 30.4817 22.3405C30.3985 22.4668 30.3152 22.5931 30.232 22.7195C30.143 22.8486 30.0597 22.9778 29.9793 23.1099C29.7296 23.5003 29.4913 23.8965 29.2616 24.2984C29.1841 24.4333 29.1095 24.5683 29.0349 24.7032C28.8827 24.973 28.7363 25.2458 28.5956 25.5214C28.5267 25.6592 28.455 25.797 28.3861 25.9348C28.3172 26.0726 28.2483 26.2103 28.1822 26.351C28.1162 26.4917 28.0502 26.6324 27.9841 26.773C27.9152 26.9137 27.8521 27.0544 27.7918 27.195C27.7258 27.3357 27.6626 27.4792 27.6052 27.6228C27.4818 27.9099 27.3612 28.1969 27.2463 28.4869C27.0081 29.0926 26.7841 29.707 26.5775 30.3328C26.4885 30.6055 26.3995 30.8811 26.3191 31.1596C26.1784 31.6161 26.0521 32.0754 25.9315 32.5405C25.8511 32.8505 25.7765 33.1634 25.7047 33.4792C25.5583 34.1079 25.432 34.7452 25.32 35.3912C25.2913 35.5548 25.2626 35.7156 25.2368 35.8792C25.211 36.0428 25.1851 36.2065 25.1621 36.3701C25.1449 36.4792 25.1277 36.5912 25.1133 36.7031C25.0818 36.9213 25.0531 37.1395 25.0272 37.3577C24.9928 37.639 24.9612 37.9203 24.9325 38.2045C24.921 38.3136 24.9095 38.4227 24.9009 38.5347C24.8837 38.7069 24.8693 38.8792 24.855 39.0514C24.8464 39.1576 24.8377 39.2667 24.8291 39.3758C24.4932 39.3529 24.1488 39.3069 23.8043 39.2237C23.6435 39.1864 23.4856 39.1404 23.3306 39.0916C23.3449 38.9136 23.3593 38.7356 23.3765 38.5605C23.3765 38.5376 23.3794 38.5203 23.3823 38.5031C23.3966 38.3423 23.411 38.1845 23.4282 38.0294V38.0237C23.4626 37.6792 23.5028 37.3376 23.5459 36.9988C23.5488 36.9959 23.5488 36.9902 23.5488 36.9873V36.9758C23.5717 36.8093 23.5947 36.6428 23.6177 36.4763C23.6406 36.3069 23.6665 36.1404 23.6923 35.9768V35.9682C23.6923 35.9682 23.6952 35.9624 23.6952 35.9596C23.6952 35.951 23.698 35.9395 23.698 35.928C23.7124 35.839 23.7267 35.75 23.744 35.661C23.7526 35.5979 23.7641 35.5318 23.7756 35.4687V35.4629C23.8014 35.2993 23.8301 35.1357 23.8617 34.9749V34.9663C23.876 34.8945 23.8875 34.8227 23.9019 34.751C23.9191 34.662 23.9363 34.5701 23.9535 34.4811C23.9708 34.3979 23.9851 34.3146 24.0023 34.2342C24.0511 33.9931 24.1028 33.7548 24.1545 33.5165V33.5108C24.209 33.2754 24.2636 33.0371 24.321 32.8017C24.3325 32.7558 24.344 32.707 24.3555 32.661C24.3727 32.5778 24.3928 32.4974 24.4157 32.4141C24.4301 32.3625 24.4444 32.3079 24.4588 32.2563C24.4703 32.2074 24.4846 32.1586 24.4961 32.1098V32.1041C24.5076 32.0697 24.5162 32.0381 24.5248 32.0036C24.5306 31.9778 24.5392 31.9491 24.5449 31.9232C24.5909 31.7539 24.6368 31.5874 24.6856 31.4208C24.72 31.2917 24.7574 31.1653 24.7976 31.039C24.8033 31.0103 24.8148 30.9787 24.8234 30.95C24.8349 30.9098 24.8464 30.8668 24.8607 30.8266C24.8923 30.7204 24.9239 30.6142 24.9612 30.5079C24.9641 30.4907 24.9698 30.4706 24.9755 30.4534C24.9899 30.4046 25.0043 30.3558 25.0215 30.307C25.0301 30.2725 25.0416 30.241 25.0559 30.2065C25.0559 30.2065 25.0559 30.2008 25.0588 30.1979C25.1392 29.9424 25.2253 29.6869 25.3114 29.4371C25.4004 29.1845 25.4894 28.9405 25.5784 28.6965C25.5928 28.6591 25.6042 28.6218 25.6186 28.5874C25.6387 28.5328 25.6588 28.4783 25.6818 28.4266C25.699 28.3807 25.7162 28.3376 25.7306 28.2974C25.7564 28.2343 25.7794 28.1711 25.8052 28.1079C25.8196 28.0735 25.831 28.039 25.8454 28.0075C25.8598 27.9644 25.877 27.9185 25.8942 27.8783C25.9114 27.8381 25.9258 27.7979 25.943 27.7606C25.9688 27.6946 25.9947 27.6285 26.0234 27.5654C26.0664 27.462 26.1095 27.3587 26.1526 27.2582C26.1956 27.1548 26.2416 27.0544 26.2846 26.951C26.3736 26.7501 26.4626 26.552 26.5516 26.3568C26.5602 26.3367 26.5688 26.3194 26.5775 26.2993C26.5861 26.2793 26.5975 26.2563 26.6062 26.2362C26.6435 26.1587 26.6779 26.0812 26.7152 26.0037C26.7411 25.9462 26.7698 25.8888 26.7985 25.8314C26.8186 25.7855 26.8416 25.7367 26.8645 25.6907C26.8846 25.6505 26.9019 25.6104 26.9248 25.5702C26.9507 25.5127 26.9794 25.4553 27.0052 25.4008C27.0224 25.3692 27.0368 25.3376 27.0511 25.3089C27.166 25.0821 27.2779 24.8611 27.3956 24.64C27.6339 24.1836 27.8808 23.7386 28.1392 23.3051C28.2224 23.1616 28.3085 23.018 28.3947 22.8745C28.4808 22.7338 28.5669 22.5931 28.6559 22.4525C28.742 22.3118 28.831 22.174 28.92 22.0362C29.0865 21.7778 29.2588 21.5223 29.4282 21.2697C29.6234 20.9884 29.8186 20.7128 30.0138 20.4429C30.2033 20.1845 30.3899 19.9319 30.5822 19.685C30.677 19.5616 30.7717 19.4381 30.8693 19.3176C30.9669 19.197 31.0616 19.0764 31.1592 18.9558C31.2569 18.8381 31.3545 18.7204 31.4521 18.6027C31.5497 18.485 31.6473 18.3702 31.7449 18.2554C31.9143 18.0602 32.0836 17.8678 32.2501 17.6783C32.5918 17.2994 32.9363 16.9319 33.2808 16.576C33.3698 16.4841 33.4588 16.3951 33.5477 16.3061C35.1698 14.6726 36.8291 13.3119 38.4051 12.1894C43.1018 8.83341 47.6922 7.04777 50.3075 6.21237L52.5094 8.88508L52.9055 8.8937C57.6567 8.99705 61.4806 10.1712 64.271 12.3875C67.1476 15.1147 68.9217 19.2602 69.5533 24.7175Z" fill="var(--fill-0, #42D486)"/>
<path d="M69.5533 24.7175C64.0586 24.8611 59.7036 23.6898 56.6031 21.2266C54.2146 18.9645 52.5754 15.7004 51.7343 11.5262L51.2979 9.34728L50.1524 11.2506C48.3037 14.3339 46.9027 17.5434 45.9927 20.7903C43.2798 30.4677 45.0108 39.6514 51.14 48.0973C51.14 48.0973 51.1257 48.1088 51.1199 48.1117C51.0883 48.1346 51.0568 48.1547 51.0252 48.172C50.9936 48.1921 50.962 48.2121 50.9304 48.2322C50.8845 48.2609 50.8414 48.2925 50.7926 48.3212C50.7438 48.3499 50.695 48.3787 50.6434 48.4074C50.606 48.4275 50.5687 48.4476 50.5285 48.4676C50.5027 48.4791 50.4768 48.4935 50.4539 48.5078C50.4309 48.5222 50.4051 48.5365 50.3792 48.548C50.362 48.5566 50.3477 48.5653 50.3304 48.571C50.3132 48.5767 50.296 48.5853 50.2788 48.594C50.1266 48.6715 49.9658 48.7404 49.808 48.8035C49.8051 48.8035 49.8022 48.8064 49.7993 48.8064C49.7936 48.8064 49.7907 48.8093 49.785 48.8121C49.4376 48.3241 49.1075 47.8389 48.7917 47.3566C48.5793 47.0322 48.3783 46.7107 48.1831 46.3892C47.3046 44.9423 46.564 43.5098 45.9467 42.0945C45.8089 41.7787 45.6769 41.4658 45.5534 41.1529C45.3008 40.527 45.0769 39.9069 44.873 39.2897C44.7381 38.8792 44.6118 38.4715 44.4941 38.0639C44.4338 37.86 44.3793 37.6591 44.3247 37.4553C44.2185 37.0534 44.1209 36.6514 44.029 36.2524C43.8941 35.6524 43.7793 35.0581 43.6845 34.4725C43.6214 34.0821 43.564 33.6945 43.5152 33.3098C42.8865 28.3032 43.5554 23.8132 44.563 20.2592C45.8348 15.7807 47.7898 12.1377 49.208 9.8669L50.6003 7.63916L48.1572 8.61236C44.9219 9.89848 41.9046 11.5434 39.1889 13.4927C38.0721 14.2937 37.0214 15.1348 36.0339 16.0161C35.9104 16.1281 35.787 16.2372 35.6664 16.3492C35.0951 16.8716 34.5468 17.4085 34.0186 17.9597C33.9152 18.0659 33.8147 18.175 33.7114 18.2841C33.4903 18.5224 33.2722 18.7635 33.0597 19.0046C32.9592 19.1195 32.8588 19.2343 32.7612 19.3491C32.5516 19.5932 32.3506 19.8372 32.1497 20.0841C32.0492 20.2046 31.9545 20.3281 31.8597 20.4487C31.7621 20.5721 31.6645 20.6955 31.5726 20.819C31.4779 20.9424 31.386 21.0688 31.2942 21.1922C31.1994 21.3156 31.1104 21.442 31.0186 21.5683C30.8406 21.818 30.6626 22.0707 30.4903 22.3262C30.4875 22.329 30.4846 22.3348 30.4817 22.3405C30.3985 22.4668 30.3152 22.5931 30.232 22.7195C30.143 22.8486 30.0597 22.9778 29.9793 23.1099C29.7296 23.5003 29.4913 23.8965 29.2616 24.2984C29.1841 24.4333 29.1095 24.5683 29.0349 24.7032C28.8827 24.973 28.7363 25.2458 28.5956 25.5214C28.5267 25.6592 28.455 25.797 28.3861 25.9348C28.3172 26.0726 28.2483 26.2103 28.1822 26.351C28.1162 26.4917 28.0502 26.6324 27.9841 26.773C27.9152 26.9137 27.8521 27.0544 27.7918 27.195C27.7258 27.3357 27.6626 27.4792 27.6052 27.6228C27.4818 27.9099 27.3612 28.1969 27.2463 28.4869C27.0081 29.0926 26.7841 29.707 26.5775 30.3328C26.4885 30.6055 26.3995 30.8811 26.3191 31.1596C26.1784 31.6161 26.0521 32.0754 25.9315 32.5405C25.8511 32.8505 25.7765 33.1634 25.7047 33.4792C25.5583 34.1079 25.432 34.7452 25.32 35.3912C25.2913 35.5548 25.2626 35.7156 25.2368 35.8792C25.211 36.0428 25.1851 36.2065 25.1621 36.3701C25.1449 36.4792 25.1277 36.5912 25.1133 36.7031C25.0818 36.9213 25.0531 37.1395 25.0272 37.3577C24.9928 37.639 24.9612 37.9203 24.9325 38.2045C24.921 38.3136 24.9095 38.4227 24.9009 38.5347C24.8837 38.7069 24.8693 38.8792 24.855 39.0514C24.8464 39.1576 24.8377 39.2667 24.8291 39.3758C24.4932 39.3529 24.1488 39.3069 23.8043 39.2237C23.6435 39.1864 23.4856 39.1404 23.3306 39.0916C23.3449 38.9136 23.3593 38.7356 23.3765 38.5605C23.3765 38.5376 23.3794 38.5203 23.3823 38.5031C23.3966 38.3423 23.411 38.1845 23.4282 38.0294V38.0237C23.4626 37.6792 23.5028 37.3376 23.5459 36.9988C23.5488 36.9959 23.5488 36.9902 23.5488 36.9873V36.9758C23.5717 36.8093 23.5947 36.6428 23.6177 36.4763C23.6406 36.3069 23.6665 36.1404 23.6923 35.9768V35.9682C23.6923 35.9682 23.6952 35.9624 23.6952 35.9596C23.6952 35.951 23.698 35.9395 23.698 35.928C23.7124 35.839 23.7267 35.75 23.744 35.661C23.7526 35.5979 23.7641 35.5318 23.7756 35.4687V35.4629C23.8014 35.2993 23.8301 35.1357 23.8617 34.9749V34.9663C23.876 34.8945 23.8875 34.8227 23.9019 34.751C23.9191 34.662 23.9363 34.5701 23.9535 34.4811C23.9708 34.3979 23.9851 34.3146 24.0023 34.2342C24.0511 33.9931 24.1028 33.7548 24.1545 33.5165V33.5108C24.209 33.2754 24.2636 33.0371 24.321 32.8017C24.3325 32.7558 24.344 32.707 24.3555 32.661C24.3727 32.5778 24.3928 32.4974 24.4157 32.4141C24.4301 32.3625 24.4444 32.3079 24.4588 32.2563C24.4703 32.2074 24.4846 32.1586 24.4961 32.1098V32.1041C24.5076 32.0697 24.5162 32.0381 24.5248 32.0036C24.5306 31.9778 24.5392 31.9491 24.5449 31.9232C24.5909 31.7539 24.6368 31.5874 24.6856 31.4208C24.72 31.2917 24.7574 31.1653 24.7976 31.039C24.8033 31.0103 24.8148 30.9787 24.8234 30.95C24.8349 30.9098 24.8464 30.8668 24.8607 30.8266C24.8923 30.7204 24.9239 30.6142 24.9612 30.5079C24.9641 30.4907 24.9698 30.4706 24.9755 30.4534C24.9899 30.4046 25.0043 30.3558 25.0215 30.307C25.0301 30.2725 25.0416 30.241 25.0559 30.2065C25.0559 30.2065 25.0559 30.2008 25.0588 30.1979C25.1392 29.9424 25.2253 29.6869 25.3114 29.4371C25.4004 29.1845 25.4894 28.9405 25.5784 28.6965C25.5928 28.6591 25.6042 28.6218 25.6186 28.5874C25.6387 28.5328 25.6588 28.4783 25.6818 28.4266C25.699 28.3807 25.7162 28.3376 25.7306 28.2974C25.7564 28.2343 25.7794 28.1711 25.8052 28.1079C25.8196 28.0735 25.831 28.039 25.8454 28.0075C25.8598 27.9644 25.877 27.9185 25.8942 27.8783C25.9114 27.8381 25.9258 27.7979 25.943 27.7606C25.9688 27.6946 25.9947 27.6285 26.0234 27.5654C26.0664 27.462 26.1095 27.3587 26.1526 27.2582C26.1956 27.1548 26.2416 27.0544 26.2846 26.951C26.3736 26.7501 26.4626 26.552 26.5516 26.3568C26.5602 26.3367 26.5688 26.3194 26.5775 26.2993C26.5861 26.2793 26.5975 26.2563 26.6062 26.2362C26.6435 26.1587 26.6779 26.0812 26.7152 26.0037C26.7411 25.9462 26.7698 25.8888 26.7985 25.8314C26.8186 25.7855 26.8416 25.7367 26.8645 25.6907C26.8846 25.6505 26.9019 25.6104 26.9248 25.5702C26.9507 25.5127 26.9794 25.4553 27.0052 25.4008C27.0224 25.3692 27.0368 25.3376 27.0511 25.3089C27.166 25.0821 27.2779 24.8611 27.3956 24.64C27.6339 24.1836 27.8808 23.7386 28.1392 23.3051C28.2224 23.1616 28.3085 23.018 28.3947 22.8745C28.4808 22.7338 28.5669 22.5931 28.6559 22.4525C28.742 22.3118 28.831 22.174 28.92 22.0362C29.0865 21.7778 29.2588 21.5223 29.4282 21.2697C29.6234 20.9884 29.8186 20.7128 30.0138 20.4429C30.2033 20.1845 30.3899 19.9319 30.5822 19.685C30.677 19.5616 30.7717 19.4381 30.8693 19.3176C30.9669 19.197 31.0616 19.0764 31.1592 18.9558C31.2569 18.8381 31.3545 18.7204 31.4521 18.6027C31.5497 18.485 31.6473 18.3702 31.7449 18.2554C31.9143 18.0602 32.0836 17.8678 32.2501 17.6783C32.5918 17.2994 32.9363 16.9319 33.2808 16.576C33.3698 16.4841 33.4588 16.3951 33.5477 16.3061C35.1698 14.6726 36.8291 13.3119 38.4051 12.1894C43.1018 8.83341 47.6922 7.04777 50.3075 6.21237L52.5094 8.88508L52.9055 8.8937C57.6567 8.99705 61.4806 10.1712 64.271 12.3875C67.1476 15.1147 68.9217 19.2602 69.5533 24.7175Z" stroke="var(--stroke-0, #0B2595)" stroke-width="8.45864" stroke-linejoin="round" mask="url(#path-9-outside-1_277_85182)"/>
</g>
</g>
<path id="Vector_9" d="M52.9947 9.02045C53.7704 8.28177 54.9943 8.23585 55.8257 8.94721L58.4078 11.1572L61.2398 11.1376L61.4488 11.1464C61.9334 11.191 62.3902 11.4022 62.7398 11.747C63.1391 12.1409 63.3659 12.6773 63.3697 13.2382L63.3814 14.9609C63.3823 15.1046 63.3678 15.2449 63.3414 15.3808L69.0669 20.2841C69.4929 20.649 69.7561 21.1683 69.7994 21.7275C69.8425 22.2868 69.6615 22.8406 69.2964 23.2665L68.1773 24.5732C67.4177 25.4592 66.0836 25.5623 65.1968 24.8037L63.6167 23.4521C63.2293 23.8148 62.7208 24.0217 62.188 24.0253L60.4654 24.037C59.9045 24.0408 59.3646 23.8207 58.9654 23.4267C58.5664 23.0327 58.3401 22.4962 58.3365 21.9355L58.3169 18.913L51.9566 13.4658C51.5305 13.1009 51.2663 12.5818 51.2232 12.0224C51.1801 11.4631 51.361 10.9093 51.7261 10.4833L52.8453 9.17767L52.9947 9.02045Z" fill="var(--fill-0, #0B2595)" stroke="var(--stroke-0, #0B2595)" stroke-width="4.22932" stroke-linejoin="round"/>
</g>
</svg>
