<svg width="100%" height="100%" overflow="visible" style="display: block;" viewBox="0 0 67.2132 71.1244" fill="none" xmlns="http://www.w3.org/2000/svg">
<g id="Group 5027">
<path id="Vector" d="M64.23 52.8028C64.1697 43.6564 56.6798 36.2641 47.5335 36.3244C38.3871 36.3847 30.9948 43.8746 31.0551 53.021C31.1154 62.1673 38.6082 69.5597 47.7516 69.4994C56.898 69.4391 64.2903 61.9463 64.23 52.8028Z" fill="var(--fill-0, #FF63F6)"/>
<path id="Vector_2" d="M29.4347 53.0353C29.3974 47.5722 31.7744 42.6603 35.561 39.2957C35.271 38.3856 34.9179 37.5043 34.493 36.6632C31.4816 30.6632 25.2548 26.5637 18.0893 26.6125C8.03289 26.6785 -0.0656275 34.8861 0.0004009 44.9425C0.0664293 54.9989 8.27404 63.1003 18.3304 63.0314C21.9017 63.0085 25.2261 61.9549 28.0251 60.1606C28.8232 59.6468 29.5811 59.0755 30.2873 58.4468C29.7419 56.7386 29.4433 54.9214 29.4318 53.0324L29.4347 53.0353Z" fill="var(--fill-0, #FF63F6)"/>
<path id="Vector_3" d="M67.1328 21.2355C66.5586 14.8824 64.5634 10.0537 61.1988 6.88151L61.1443 6.83558C58.1271 4.42698 54.0793 3.12077 49.107 2.95426L46.6726 0.000209121L46.1243 0.166715C43.5377 0.947573 38.4162 2.81359 33.1712 6.55711C26.6775 11.1935 18.7857 19.6881 17.4364 34.0335C16.2967 33.2182 15.6536 32.0843 15.8976 31.0479L14.2211 30.6517C13.624 33.1809 15.846 35.8823 19.1732 36.6718C19.7962 36.8182 20.4163 36.89 21.0163 36.89C23.6115 36.89 25.8134 35.5694 26.3014 33.5139L24.6249 33.1149C24.4038 34.0421 23.511 34.7196 22.334 35.0096C23.155 24.7637 27.7339 16.5791 35.9617 10.6652C37.8851 9.2815 39.9693 8.06141 42.1798 7.01931C40.9597 9.27002 39.6305 12.1896 38.6746 15.5628C36.6277 22.7714 35.91 33.6287 43.7272 44.9799C42.3808 45.0488 41.2554 44.5722 40.799 43.6651L39.2602 44.4402C39.9865 45.8871 41.6056 46.7081 43.5004 46.7081C43.9453 46.7081 44.4047 46.6593 44.8697 46.5674L44.8841 46.5875L45.4554 46.4296C45.9578 46.289 46.4544 46.0995 46.9252 45.8612C47.5712 45.5339 48.1625 45.1349 48.6764 44.6698L49.2621 44.1416L49.2362 44.1072C50.6946 42.4794 51.1453 40.4469 50.3444 38.8565L48.8056 39.6316C49.2448 40.5014 48.9893 41.6584 48.1826 42.689C42.4784 34.7369 40.8765 26.1072 43.4229 17.0298C44.109 14.5839 45.0879 12.1552 46.3396 9.7925C47.3501 13.3293 48.9865 16.1772 51.2199 18.2786L51.2716 18.3245C54.8802 21.2068 59.9414 22.5015 66.3175 22.1771L67.2132 22.1312L67.1328 21.2384V21.2355ZM52.3769 16.9982C49.9855 14.736 48.3492 11.4719 47.508 7.29778L47.0688 5.11884L45.9233 7.02505C44.0717 10.1054 42.6736 13.315 41.7635 16.5647C39.0506 26.2422 40.7817 35.4259 46.9109 43.8718C46.9051 43.8775 46.8994 43.8804 46.8908 43.8861C46.8305 43.9292 46.7645 43.9665 46.7013 44.0067C46.6439 44.044 46.5865 44.0813 46.5291 44.1158C46.4544 44.1588 46.3769 44.199 46.2994 44.2421C46.2506 44.2679 46.2018 44.2966 46.1501 44.3225C46.1185 44.3397 46.0841 44.3512 46.0496 44.3684C45.8917 44.4459 45.731 44.5177 45.5702 44.5808C45.5645 44.5808 45.5587 44.5837 45.5559 44.5866C37.687 33.5713 38.3588 23.0068 40.3368 16.0365C41.6056 11.558 43.5635 7.915 44.9817 5.6442L46.374 3.41646L43.9339 4.38966C40.6985 5.67865 37.6813 7.32074 34.9655 9.27289C26.2325 15.5513 21.4067 24.2556 20.6058 35.156C20.2699 35.133 19.9254 35.0842 19.5809 35.0039C19.4201 34.9665 19.2622 34.9206 19.1072 34.8718C20.2125 20.7676 27.8832 12.4623 34.1789 7.96955C38.8755 4.61645 43.4688 2.83082 46.0841 1.99541L48.286 4.66813L48.6822 4.67674C53.4333 4.77722 57.2572 5.95424 60.0505 8.1705C62.9271 10.8978 64.7012 15.0432 65.3299 20.5006C59.8352 20.6441 55.4831 19.4728 52.3826 17.0097L52.3769 16.9982Z" fill="var(--fill-0, #0B2595)"/>
<path id="Vector_4" d="M18.21 59.0637C14.4464 59.0637 10.9009 57.6082 8.21385 54.9556C5.50382 52.28 3.99665 48.7173 3.97081 44.9192C3.96507 44.1269 4.60526 43.481 5.3976 43.4752H5.40621C6.19568 43.4752 6.83587 44.1126 6.84161 44.902C6.86171 47.9336 8.06457 50.7785 10.2292 52.9144C12.3765 55.0331 15.2071 56.1957 18.21 56.1957C18.2387 56.1957 18.2645 56.1957 18.2961 56.1957C19.0856 56.1957 19.7258 56.8331 19.7315 57.6225C19.7372 58.4149 19.097 59.0608 18.3047 59.0665C18.2731 59.0665 18.2387 59.0665 18.2071 59.0665L18.21 59.0637Z" fill="var(--fill-0, #FFFFFF)"/>
<path id="Vector_5" d="M47.6429 67.1535C43.8822 67.1535 40.3339 65.698 37.6468 63.0454C34.9368 60.3698 33.4296 56.8072 33.4038 53.0091C33.398 52.2167 34.0382 51.5708 34.8306 51.5651H34.8392C35.6286 51.5651 36.2688 52.2024 36.2746 52.9919C36.2947 56.0234 37.4975 58.8684 39.6621 61.0043C41.8095 63.1229 44.6401 64.2856 47.6401 64.2856C47.6688 64.2856 47.6946 64.2856 47.7262 64.2856C48.5157 64.2856 49.1558 64.9229 49.1616 65.7124C49.1673 66.5047 48.5271 67.1506 47.7348 67.1564C47.7032 67.1564 47.6688 67.1564 47.6372 67.1564L47.6429 67.1535Z" fill="var(--fill-0, #FFFFFF)"/>
<path id="Vector_6" d="M47.5353 36.3271C56.6817 36.2668 64.1716 43.6591 64.2319 52.8054C64.2922 61.9518 56.8999 69.4417 47.7535 69.502C38.6071 69.5623 31.1172 62.17 31.0569 53.0236C30.9967 43.8773 38.389 36.3874 47.5353 36.3242V36.3271ZM47.5238 34.7051C37.4674 34.7711 29.3689 42.9787 29.4349 53.0351C29.501 63.0915 37.7086 71.19 47.765 71.124C57.8214 71.058 65.9199 62.8504 65.8539 52.794C65.7879 42.7376 57.5802 34.639 47.5238 34.7051Z" fill="var(--fill-0, #0B2595)"/>
<path id="Vector_7" d="M29.8238 56.6757C29.02 57.4623 28.1272 58.1742 27.154 58.8001C24.5215 60.491 21.4698 61.3924 18.3234 61.4153C9.17705 61.4756 1.68714 54.0833 1.62685 44.9341C1.56656 35.7849 8.956 28.2978 18.1024 28.2375C21.2574 28.2174 24.3291 29.0844 26.9904 30.7495C29.5827 32.3686 31.6755 34.6681 33.0477 37.3983C33.5645 38.426 33.9607 39.4911 34.2506 40.5848C34.6669 40.1341 35.1032 39.7035 35.5626 39.2987C35.2726 38.3887 34.9195 37.5102 34.4946 36.6691C31.4832 30.6691 25.2564 26.5696 18.0909 26.6184C8.03447 26.6844 -0.0640499 34.8949 0.00197848 44.9485C0.0680068 55.002 8.27562 63.1063 18.332 63.0374C21.9033 63.0144 25.2277 61.9608 28.0267 60.1666C28.8248 59.6556 29.5798 59.0814 30.286 58.4556C30.1023 57.8757 29.9444 57.2843 29.8181 56.6785L29.8238 56.6757Z" fill="var(--fill-0, #0B2595)"/>
<g id="Group">
<path id="Vector_8" d="M65.324 20.4882C59.8293 20.6318 55.4743 19.4605 52.3738 16.9973C49.9853 14.7351 48.3461 11.4711 47.5049 7.29691L47.0686 5.11798L45.9231 7.02132C44.0743 10.1046 42.6734 13.3141 41.7633 16.561C39.0504 26.2384 40.7815 35.4221 46.9107 43.868C46.9107 43.868 46.8963 43.8795 46.8906 43.8824C46.859 43.9053 46.8274 43.9254 46.7958 43.9427C46.7643 43.9627 46.7327 43.9828 46.7011 44.0029C46.6552 44.0316 46.6121 44.0632 46.5633 44.0919C46.5145 44.1206 46.4657 44.1493 46.414 44.1781C46.3767 44.1981 46.3394 44.2182 46.2992 44.2383C46.2734 44.2498 46.2475 44.2642 46.2246 44.2785C46.2016 44.2929 46.1758 44.3072 46.1499 44.3187C46.1327 44.3273 46.1183 44.3359 46.1011 44.3417C46.0839 44.3474 46.0667 44.356 46.0494 44.3647C45.8973 44.4422 45.7365 44.5111 45.5786 44.5742C45.5758 44.5742 45.5729 44.5771 45.57 44.5771C45.5643 44.5771 45.5614 44.58 45.5557 44.5828C45.2083 44.0948 44.8782 43.6096 44.5624 43.1273C44.3499 42.8029 44.149 42.4814 43.9538 42.1599C43.0753 40.713 42.3346 39.2805 41.7174 37.8652C41.5796 37.5494 41.4475 37.2365 41.3241 36.9235C41.0715 36.2977 40.8476 35.6776 40.6437 35.0604C40.5088 34.6499 40.3825 34.2422 40.2648 33.8346C40.2045 33.6307 40.1499 33.4298 40.0954 33.226C39.9892 32.824 39.8916 32.4221 39.7997 32.0231C39.6648 31.4231 39.55 30.8288 39.4552 30.2432C39.3921 29.8528 39.3346 29.4652 39.2858 29.0805C38.6571 24.0739 39.326 19.5839 40.3337 16.0299C41.6054 11.5514 43.5605 7.90839 44.9786 5.63759L46.371 3.40985L43.9279 4.38305C40.6925 5.66917 37.6753 7.31414 34.9595 9.26341C33.8428 10.0644 32.7921 10.9055 31.8045 11.7868C31.6811 11.8988 31.5576 12.0079 31.4371 12.1199C30.8658 12.6423 30.3175 13.1792 29.7892 13.7304C29.6859 13.8366 29.5854 13.9457 29.4821 14.0548C29.261 14.293 29.0428 14.5342 28.8304 14.7753C28.7299 14.8902 28.6294 15.005 28.5318 15.1198C28.3223 15.3639 28.1213 15.6079 27.9203 15.8548C27.8199 15.9753 27.7251 16.0988 27.6304 16.2194C27.5328 16.3428 27.4352 16.4662 27.3433 16.5897C27.2486 16.7131 27.1567 16.8394 27.0648 16.9629C26.9701 17.0863 26.8811 17.2126 26.7893 17.339C26.6113 17.5887 26.4333 17.8414 26.261 18.0969C26.2582 18.0997 26.2553 18.1055 26.2524 18.1112C26.1692 18.2375 26.0859 18.3638 26.0027 18.4902C25.9137 18.6193 25.8304 18.7485 25.75 18.8806C25.5003 19.271 25.262 19.6672 25.0323 20.0691C24.9548 20.204 24.8802 20.3389 24.8055 20.4739C24.6534 20.7437 24.507 21.0165 24.3663 21.2921C24.2974 21.4298 24.2256 21.5676 24.1567 21.7054C24.0878 21.8432 24.0189 21.981 23.9529 22.1217C23.8869 22.2624 23.8208 22.4031 23.7548 22.5437C23.6859 22.6844 23.6228 22.8251 23.5625 22.9657C23.4964 23.1064 23.4333 23.2499 23.3759 23.3935C23.2524 23.6806 23.1319 23.9676 23.017 24.2576C22.7787 24.8633 22.5548 25.4777 22.3481 26.1035C22.2591 26.3762 22.1701 26.6518 22.0898 26.9303C21.9491 27.3868 21.8228 27.8461 21.7022 28.3112C21.6218 28.6212 21.5472 28.9341 21.4754 29.2499C21.329 29.8786 21.2027 30.5159 21.0907 31.1619C21.062 31.3255 21.0333 31.4863 21.0075 31.6499C20.9816 31.8135 20.9558 31.9772 20.9328 32.1408C20.9156 32.2499 20.8984 32.3619 20.884 32.4738C20.8524 32.692 20.8237 32.9102 20.7979 33.1284C20.7634 33.4097 20.7319 33.691 20.7032 33.9752C20.6917 34.0843 20.6802 34.1934 20.6716 34.3054C20.6544 34.4776 20.64 34.6499 20.6256 34.8221C20.617 34.9283 20.6084 35.0374 20.5998 35.1465C20.2639 35.1236 19.9194 35.0776 19.5749 34.9944C19.4142 34.9571 19.2563 34.9111 19.1013 34.8623C19.1156 34.6843 19.13 34.5063 19.1472 34.3312C19.1472 34.3082 19.1501 34.291 19.1529 34.2738C19.1673 34.113 19.1816 33.9551 19.1989 33.8001V33.7944C19.2333 33.4499 19.2735 33.1083 19.3166 32.7695C19.3194 32.7666 19.3194 32.7609 19.3194 32.758V32.7465C19.3424 32.58 19.3654 32.4135 19.3883 32.247C19.4113 32.0776 19.4371 31.9111 19.463 31.7475V31.7389C19.463 31.7389 19.4658 31.7331 19.4658 31.7303C19.4658 31.7217 19.4687 31.7102 19.4687 31.6987C19.4831 31.6097 19.4974 31.5207 19.5146 31.4317C19.5233 31.3686 19.5347 31.3025 19.5462 31.2394V31.2336C19.5721 31.07 19.6008 30.9064 19.6324 30.7456V30.737C19.6467 30.6652 19.6582 30.5934 19.6725 30.5217C19.6898 30.4327 19.707 30.3408 19.7242 30.2518C19.7414 30.1686 19.7558 30.0853 19.773 30.0049C19.8218 29.7638 19.8735 29.5255 19.9252 29.2872V29.2815C19.9797 29.0461 20.0343 28.8078 20.0917 28.5724C20.1032 28.5265 20.1146 28.4777 20.1261 28.4317C20.1434 28.3485 20.1634 28.2681 20.1864 28.1848C20.2008 28.1332 20.2151 28.0786 20.2295 28.0269C20.241 27.9781 20.2553 27.9293 20.2668 27.8805V27.8748C20.2783 27.8403 20.2869 27.8088 20.2955 27.7743C20.3012 27.7485 20.3099 27.7198 20.3156 27.6939C20.3615 27.5246 20.4075 27.358 20.4563 27.1915C20.4907 27.0624 20.528 26.936 20.5682 26.8097C20.574 26.781 20.5855 26.7494 20.5941 26.7207C20.6056 26.6805 20.617 26.6375 20.6314 26.5973C20.663 26.4911 20.6945 26.3848 20.7319 26.2786C20.7347 26.2614 20.7405 26.2413 20.7462 26.2241C20.7606 26.1753 20.7749 26.1265 20.7922 26.0777C20.8008 26.0432 20.8122 26.0116 20.8266 25.9772C20.8266 25.9772 20.8266 25.9715 20.8295 25.9686C20.9099 25.7131 20.996 25.4576 21.0821 25.2078C21.1711 24.9552 21.2601 24.7112 21.3491 24.4672C21.3634 24.4298 21.3749 24.3925 21.3893 24.3581C21.4094 24.3035 21.4295 24.249 21.4524 24.1973C21.4697 24.1514 21.4869 24.1083 21.5012 24.0681C21.5271 24.005 21.55 23.9418 21.5759 23.8786C21.5902 23.8442 21.6017 23.8097 21.6161 23.7782C21.6304 23.7351 21.6477 23.6892 21.6649 23.649C21.6821 23.6088 21.6965 23.5686 21.7137 23.5313C21.7395 23.4652 21.7654 23.3992 21.7941 23.3361C21.8371 23.2327 21.8802 23.1294 21.9232 23.0289C21.9663 22.9255 22.0122 22.8251 22.0553 22.7217C22.1443 22.5208 22.2333 22.3227 22.3223 22.1275C22.3309 22.1074 22.3395 22.0901 22.3481 22.07C22.3567 22.0499 22.3682 22.027 22.3768 22.0069C22.4142 21.9294 22.4486 21.8519 22.4859 21.7743C22.5118 21.7169 22.5405 21.6595 22.5692 21.6021C22.5893 21.5562 22.6122 21.5074 22.6352 21.4614C22.6553 21.4212 22.6725 21.381 22.6955 21.3409C22.7213 21.2834 22.75 21.226 22.7759 21.1715C22.7931 21.1399 22.8075 21.1083 22.8218 21.0796C22.9366 20.8528 23.0486 20.6318 23.1663 20.4107C23.4046 19.9543 23.6515 19.5093 23.9098 19.0758C23.9931 18.9323 24.0792 18.7887 24.1653 18.6452C24.2515 18.5045 24.3376 18.3638 24.4266 18.2232C24.5127 18.0825 24.6017 17.9447 24.6907 17.8069C24.8572 17.5485 25.0295 17.293 25.1988 17.0404C25.394 16.7591 25.5893 16.4835 25.7845 16.2136C25.9739 15.9552 26.1605 15.7026 26.3529 15.4557C26.4476 15.3323 26.5424 15.2088 26.64 15.0883C26.7376 14.9677 26.8323 14.8471 26.9299 14.7265C27.0275 14.6088 27.1251 14.4911 27.2227 14.3734C27.3203 14.2557 27.418 14.1409 27.5156 14.0261C27.6849 13.8308 27.8543 13.6385 28.0208 13.449C28.3624 13.0701 28.7069 12.7026 29.0514 12.3466C29.1404 12.2548 29.2294 12.1658 29.3184 12.0768C30.9404 10.4433 32.5997 9.08255 34.1758 7.96007C38.8724 4.6041 43.4629 2.81847 46.0781 1.98306L48.28 4.65578L48.6762 4.66439C53.4274 4.76774 57.2513 5.9419 60.0417 8.15815C62.9183 10.8854 64.6924 15.0308 65.324 20.4882Z" fill="var(--fill-0, #42D486)"/>
</g>
<path id="Vector_9" d="M63.462 17.6611L55.4008 10.7569L57.0371 10.7454L57.0257 9.02289L53.4056 9.04873L50.2219 6.32434L49.1023 7.63056L56.196 13.7052L56.2218 17.6927L57.9443 17.6812L57.9271 15.1894L62.3424 18.9673L63.462 17.6611Z" fill="var(--fill-0, #0B2595)"/>
</g>
</svg>
