<svg width="100%" height="100%" overflow="visible" style="display: block;" viewBox="0 0 28.667 20.667" fill="none" xmlns="http://www.w3.org/2000/svg">
<g id="bingo">
<path id="Subtract" d="M18.333 0C24.0398 2.73806e-06 28.6668 4.62622 28.667 10.333C28.6669 16.0399 24.0399 20.667 18.333 20.667C12.6262 20.6668 8.00004 16.0398 8 10.333C8.00018 4.62632 12.6263 0.000175745 18.333 0ZM19.667 6C19.1147 6 18.667 6.44772 18.667 7V10.667H16.667V7C16.667 6.44783 16.2191 6.00018 15.667 6C15.1147 6 14.667 6.44772 14.667 7V11C14.667 11.9204 15.4135 12.667 16.334 12.667H18.667V13.667C18.6672 14.2191 19.1148 14.667 19.667 14.667C20.219 14.6668 20.6668 14.219 20.667 13.667V12.667H21C21.552 12.6668 21.9998 12.219 22 11.667C22 11.1148 21.5521 10.6672 21 10.667H20.667V7C20.667 6.44783 20.2191 6.00018 19.667 6Z" fill="var(--fill-0, #0A2ECB)"/>
<path id="Ellipse 295" d="M9 18.3335C4.58172 18.3335 1 14.7518 1 10.3335C1 5.91522 4.58172 2.3335 9 2.3335" stroke="var(--stroke-0, #0A2ECB)" stroke-width="2" stroke-linecap="round"/>
</g>
</svg>
