<svg width="100%" height="100%" overflow="visible" style="display: block;" viewBox="0 0 28.667 20.667" fill="none" xmlns="http://www.w3.org/2000/svg">
<g id="Group 5354">
<path id="Subtract" d="M25.667 0C27.3237 0.000178997 28.667 1.34326 28.667 3V17.667C28.6668 19.3236 27.3236 20.6668 25.667 20.667H19.667C18.0103 20.667 16.6672 19.3237 16.667 17.667V3C16.667 1.34314 18.0101 0 19.667 0H25.667ZM6.33301 0.666992C6.88529 0.666995 7.33301 1.11471 7.33301 1.66699C7.33279 2.21909 6.88515 2.66699 6.33301 2.66699H3C2.44772 2.66699 2 3.11471 2 3.66699V17C2.00004 17.5522 2.44774 18 3 18H6.33301C6.88529 18 7.33301 18.4477 7.33301 19C7.33296 19.5522 6.88526 20 6.33301 20H3C1.34318 20 4.50008e-05 18.6568 0 17V3.66699C0 2.01014 1.34315 0.666992 3 0.666992H6.33301ZM14.667 0.666992C15.2191 0.66717 15.667 1.11482 15.667 1.66699C15.6668 2.21898 15.219 2.66681 14.667 2.66699H11.333C10.7809 2.66717 10.333 3.11482 10.333 3.66699V17C10.3331 17.5521 10.7809 17.9998 11.333 18H14.667C15.2191 18.0002 15.667 18.4478 15.667 19C15.6669 19.5521 15.2191 19.9998 14.667 20H11.333C9.67633 19.9998 8.33305 18.6567 8.33301 17V3.66699C8.33301 2.01025 9.6763 0.667169 11.333 0.666992H14.667ZM21 6C20.4477 6 20 6.44772 20 7C20 7.55225 20.4477 8 21 8H22.9902L21.376 13.3789C21.2173 13.9078 21.5171 14.4652 22.0459 14.624C22.5748 14.7827 23.1322 14.483 23.291 13.9541L25.291 7.28711C25.3817 6.98449 25.3242 6.65684 25.1357 6.40332C24.9471 6.14971 24.6491 6 24.333 6H21Z" fill="var(--fill-0, #0A2ECB)"/>
<path id="Vector 1288" d="M12 7.33337H15L13.2 13.3334" stroke="var(--stroke-0, #0A2ECB)" stroke-width="2" stroke-linecap="round" stroke-linejoin="round"/>
<path id="Vector 1291" d="M3.66699 7.33337H6.66699L4.86699 13.3334" stroke="var(--stroke-0, #0A2ECB)" stroke-width="2" stroke-linecap="round" stroke-linejoin="round"/>
</g>
</svg>
