<svg width="100%" height="100%" overflow="visible" style="display: block;" viewBox="0 0 27.935 20.667" fill="none" xmlns="http://www.w3.org/2000/svg">
<g id="Group 5357">
<path id="Subtract" d="M24.2689 0C26.2938 0.00017523 27.935 1.64206 27.935 3.66699V17C27.9349 19.0249 26.2938 20.6668 24.2689 20.667H16.2689C14.2439 20.667 12.602 19.025 12.6019 17V3.66699C12.6019 1.64195 14.2439 0 16.2689 0H24.2689ZM20.268 7.33301C19.905 7.33324 19.5702 7.53038 19.3939 7.84766L16.8012 12.5137L16.0609 13.8477C15.793 14.3303 15.9671 14.9388 16.4496 15.207C16.9323 15.4751 17.5408 15.301 17.809 14.8184L18.2641 14H22.2728L22.7279 14.8184C22.9961 15.3011 23.6046 15.475 24.0873 15.207C24.5699 14.9389 24.7439 14.3304 24.476 13.8477L23.7348 12.5137L21.142 7.84766C20.9656 7.53027 20.6311 7.33301 20.268 7.33301ZM21.1615 12H19.3754L20.268 10.3916L21.1615 12ZM16.935 3C16.1988 3.00018 15.6021 3.59685 15.6019 4.33301C15.6019 5.06928 16.1987 5.66682 16.935 5.66699C17.6713 5.66699 18.2689 5.06939 18.2689 4.33301C18.2688 3.59674 17.6713 3 16.935 3Z" fill="var(--fill-0, #0A2ECB)"/>
<path id="Vector 1293" d="M10.9669 1.2899L9.40076 1.85993L8.14784 2.31596C7.10988 2.69374 6.57471 3.84143 6.95249 4.87938L9.46064 11.7705L10.2587 13.9631L10.6577 15.0594" stroke="var(--stroke-0, #0A2ECB)" stroke-width="2" stroke-linecap="round" stroke-linejoin="round"/>
<path id="Vector 1289" d="M6.10178 13.7706L4.93512 11.7499L1.26845 5.39904C0.716165 4.44246 1.04392 3.21928 2.0005 2.66699L3.1552 2.00033L4.59858 1.16699" stroke="var(--stroke-0, #0A2ECB)" stroke-width="2" stroke-linecap="round" stroke-linejoin="round"/>
</g>
</svg>
