<svg preserveAspectRatio="none" width="100%" height="100%" overflow="visible" style="display: block;" viewBox="0 0 21.7795 15.5" fill="none" xmlns="http://www.w3.org/2000/svg">
<g id="Vector">
<path fill-rule="evenodd" clip-rule="evenodd" d="M10.8897 2.5C6.74936 2.5 3.91849 5.5633 2.63288 7.35198C2.45571 7.59849 2.45571 7.90152 2.63288 8.14802C3.91849 9.9367 6.74936 13 10.8897 13C15.0301 13 17.861 9.9367 19.1466 8.14802C19.3238 7.90151 19.3238 7.59848 19.1466 7.35198C17.861 5.5633 15.0301 2.5 10.8897 2.5ZM0.60284 5.89289C1.99255 3.95937 5.47528 0 10.8897 0C16.3042 0 19.7869 3.95937 21.1766 5.89289C21.9804 7.01121 21.9804 8.48879 21.1766 9.60711C19.7869 11.5406 16.3042 15.5 10.8897 15.5C5.47528 15.5 1.99255 11.5406 0.60284 9.60711C-0.200947 8.48879 -0.200946 7.01121 0.60284 5.89289Z" fill="var(--fill-0, #9DABEA)"/>
<path fill-rule="evenodd" clip-rule="evenodd" d="M7.63973 7.75C7.63973 5.95507 9.0948 4.5 10.8897 4.5C12.6847 4.5 14.1397 5.95507 14.1397 7.75C14.1397 9.54493 12.6847 11 10.8897 11C9.0948 11 7.63973 9.54493 7.63973 7.75Z" fill="var(--fill-0, #9DABEA)"/>
</g>
</svg>
