<svg width="80" height="103" viewBox="0 0 80 103" fill="none" xmlns="http://www.w3.org/2000/svg">
<path d="M33.2281 10.4404C31.7281 7.44559 34.12 3.70326 37.7164 4.2334C51.5468 6.27282 62.3143 17.4707 63.2936 31.2793L63.3385 32.0127C63.5258 35.6802 63.1369 39.2856 62.1315 42.5029L62.1246 42.5264L62.1168 42.5498C61.8299 43.4312 61.509 44.2674 61.1901 45.0566L61.191 45.0576C60.6872 46.3352 60.2994 47.365 60.0768 48.4141C59.9036 49.302 60.0084 49.8662 60.1217 50.1582C60.208 50.3803 60.3253 50.53 60.5133 50.6494L60.5983 50.6982L60.6237 50.7119C61.1179 50.9809 61.4392 50.9612 61.6764 50.8896C61.9808 50.7934 62.3539 50.5629 62.7701 50.1133C63.0839 49.7743 63.3485 49.3894 63.5553 49.0381L63.7428 48.7012C63.9722 48.252 64.2067 47.8951 64.4254 47.6074L64.5758 47.4209C66.1701 45.5475 69.0886 45.3503 70.9049 47.1748C71.158 47.4291 71.3975 47.7109 71.6266 48.0146L71.8522 48.3252L71.8912 48.3818C73.2088 50.3318 73.8568 52.6003 74.2848 54.1064C74.3239 54.2439 74.3538 54.3816 74.3785 54.5186C78.4755 69.8849 70.5488 88.0858 56.3678 94.5898L56.3668 94.5908C50.9953 97.0528 44.8096 98.1709 38.5319 97.8945V97.8936C30.3434 97.5387 22.5476 94.8615 16.6168 90.2031L16.608 90.1963C10.8206 85.6251 6.96954 79.0115 5.2926 71.2656V71.2646C1.50775 53.7573 8.23722 39.6278 12.6168 32.7295L12.775 32.4961C14.4059 30.2406 17.5344 30.2371 19.2975 31.998L19.4684 32.1797L19.5875 32.3193C20.1271 32.981 20.4553 33.7846 20.5367 34.626L20.5504 34.8066L20.6071 35.7168C20.6462 36.2663 20.6934 36.7983 20.7467 37.3125C22.1293 33.8776 24.5069 30.6143 27.5719 27.5635L27.5748 27.5605C31.2722 23.8878 33.2457 20.7568 34.0348 18.0703C34.7792 15.5359 34.5614 13.1025 33.2281 10.4404Z" fill="#FFDF00" stroke="white" stroke-width="8.35577"/>
<path d="M43.6652 33.3335C44.6839 33.085 46.0468 33.1399 47.2785 33.9995C48.3544 34.7506 48.7993 35.7559 48.9807 36.2886C49.1744 36.8577 49.2329 37.3731 49.2551 37.7046C49.3183 38.6516 49.1627 39.6981 49.0344 40.395V40.4526L48.9514 40.8647C48.6313 42.4423 48.5744 44.0833 48.759 45.7524L48.8527 46.4702V46.4722C49.2659 49.2163 50.3711 52.0618 51.8869 55.2124C52.6411 56.78 53.4581 58.3472 54.3137 60.0005C55.1567 61.6294 56.0326 63.3335 56.8361 65.063C60.0423 71.9642 62.5631 80.2409 57.7453 89.2339L57.7433 89.2368C55.9133 92.6462 52.7201 94.8312 49.8635 96.0405L49.8586 96.0435C44.7203 98.2102 38.1385 98.5513 32.3849 96.8862C26.5735 95.2043 20.9311 91.2266 19.0637 84.2153L19.0617 84.2075C17.4072 77.9481 18.0763 71.1591 20.6887 65.4956L20.6926 65.4878C20.9462 64.9408 21.3379 64.2514 21.9494 63.6372C22.5573 63.0267 23.6872 62.2041 25.2971 62.1812C26.3242 62.1665 27.1743 62.4809 27.8332 62.8931C27.7446 62.4176 27.6597 61.9163 27.6008 61.4233L27.5998 61.4194C27.1731 57.8143 27.7803 54.185 28.715 51.1138L28.718 51.104C30.5896 45.0073 33.8984 38.4096 42.1301 34.0083C42.5008 33.7663 43.0186 33.4912 43.6652 33.3335Z" fill="#FF63F6" stroke="white" stroke-width="8.35577"/>
<path d="M37.192 6.97559L37.3102 6.98828L37.899 7.08105C50.2074 9.16405 59.6472 19.2237 60.5153 31.4785L60.5563 32.1572C60.729 35.5439 60.3664 38.8138 59.4733 41.6719L59.4703 41.6797L59.4684 41.6875C59.2061 42.4932 58.9077 43.2716 58.5992 44.0342L58.6002 44.0352C58.0977 45.3093 57.6226 46.5477 57.3463 47.8643C56.8634 50.3143 57.5936 52.0731 58.9938 52.9834L59.2838 53.1543L59.2916 53.1582C60.3967 53.7597 61.491 53.8602 62.4977 53.5518C64.3467 52.9765 65.5863 51.1899 66.2125 49.9883C66.3651 49.6864 66.5132 49.4626 66.6422 49.293L66.7516 49.165C67.2872 48.6012 68.1811 48.5251 68.8024 49.0244L68.9313 49.1396L69.0826 49.3008C69.1854 49.4152 69.2918 49.5445 69.402 49.6904L69.5709 49.9219L69.5768 49.9316L69.5836 49.9414C70.6168 51.4706 71.1662 53.3193 71.6061 54.8672C71.6275 54.9425 71.6404 55.0182 71.649 55.0928C75.5103 69.2699 68.1118 86.1398 55.2067 92.0586C50.2733 94.3197 44.5323 95.3711 38.6539 95.1123V95.1113C30.9723 94.7787 23.7549 92.2677 18.3375 88.0127L18.3346 88.0098C13.1199 83.8909 9.57429 77.8775 8.01526 70.6768V70.6758C4.44911 54.18 10.7818 40.816 14.9684 34.2217L15.0826 34.0635C15.6505 33.3709 16.6504 33.3619 17.2623 33.9053L17.3873 34.0303L17.4684 34.1299C17.6227 34.3363 17.7212 34.5778 17.7565 34.8311L17.7692 34.958L17.8287 35.9131C17.9849 38.1069 18.2553 40.0699 18.6129 41.7695L18.6823 42.0527C18.8839 42.8025 19.3581 44.1457 19.9528 45.3408C20.0954 45.6274 20.2401 45.8897 20.3795 46.125C21.345 42.5997 21.7658 41.1734 22.9713 38.8066C24.1168 36.5577 25.515 33.5402 29.5367 29.5371L29.5377 29.5361C33.4126 25.687 35.7358 22.164 36.7076 18.8555C37.6646 15.5976 37.3446 12.4392 35.7184 9.19238C35.2016 8.16018 35.9851 6.88392 37.192 6.97559Z" fill="#FFDF00" stroke="#0B2595" stroke-width="2.78526"/>
<path d="M43.8224 45.4653C44.1872 45.2392 44.9713 44.8722 45.7755 45.3765C46.1771 45.6284 46.3727 45.9902 46.4669 46.2388C46.5619 46.4896 46.5966 46.7344 46.6105 46.9214C46.6567 47.5436 46.5177 48.3141 46.4005 48.8569V48.8979L46.3663 49.0493C45.9941 50.6982 45.9544 52.3936 46.2013 54.0884L46.255 54.4272V54.4282C46.6894 57.0211 47.8332 59.6194 49.2794 62.3208C50.0005 63.6677 50.7809 65.0118 51.5724 66.3862C52.3589 67.752 53.1547 69.1444 53.881 70.5493C56.7816 76.1602 58.7701 82.3469 54.7872 89.0278L54.7863 89.0288C53.4147 91.3251 50.9675 92.8678 48.6525 93.7485L48.6505 93.7495C44.4421 95.3443 38.9295 95.6178 34.1115 94.3647C29.3036 93.1143 24.8648 90.2402 23.3878 85.2573L23.3868 85.2544C22.0197 80.6065 22.5168 75.5597 24.5685 71.3149L24.7736 70.9048C24.9471 70.5684 25.1746 70.2282 25.4767 69.9556C25.782 69.6801 26.2342 69.4151 26.8087 69.4077C27.8614 69.3944 28.4574 70.1779 28.755 70.7642L28.8644 71.0005L28.8663 71.0034C29.4573 72.4084 30.2416 72.7998 30.8292 72.9058C31.3291 72.9958 31.8154 72.8992 32.1525 72.771C32.3524 72.1028 32.3383 71.2686 32.1681 70.2339C32.0679 69.625 31.9275 69.0107 31.7814 68.3638C31.6401 67.7383 31.4907 67.0676 31.4064 66.4331L31.4054 66.4312C31.0538 63.7607 31.551 61.0037 32.3654 58.5991L32.3663 58.5952C34.0302 53.7245 36.8571 48.7691 43.8224 45.4653Z" fill="#FF63F6" stroke="#0B2595" stroke-width="2.78526"/>
<path d="M54.6504 27.054C54.1871 25.5393 53.1086 23.2102 51.2799 19.7447C50.8739 18.975 49.9211 18.6756 49.1516 19.0834C48.4315 19.4652 48.13 20.3292 48.4297 21.07L48.498 21.2165C50.2308 24.4997 51.2517 26.7032 51.6406 27.9747C52.1764 29.7262 52.438 31.1977 52.4339 32.7381C52.4298 34.2807 52.1601 35.9103 51.6105 37.9787C51.5293 38.2769 51.5416 38.5778 51.625 38.8505C51.7784 39.352 52.1781 39.7689 52.7245 39.9143C53.5642 40.1405 54.4288 39.6419 54.6517 38.7998C55.8795 34.1759 55.8833 31.0844 54.6504 27.054Z" fill="white" stroke="white" stroke-width="0.696314"/>
</svg>
