<svg preserveAspectRatio="none" width="100%" height="100%" overflow="visible" style="display: block;" viewBox="0 0 19.2576 19.6631" fill="none" xmlns="http://www.w3.org/2000/svg">
<g id="Google Icon">
<path id="Vector" d="M19.2576 10.0559C19.2576 9.33729 19.1933 8.64971 19.0739 7.98854H9.83577V11.7765L15.1562 11.7777C14.9404 13.0381 14.2459 14.1125 13.1818 14.8288V17.2864H16.3489C18.1981 15.5749 19.2576 13.045 19.2576 10.0559Z" fill="var(--fill-0, #4285F4)"/>
<path id="Vector_2" d="M13.1811 14.8292C12.2995 15.4238 11.1643 15.7717 9.83618 15.7717C7.27066 15.7717 5.09428 14.0429 4.31487 11.7127H1.048V14.2473C2.66652 17.459 5.99307 19.663 9.83618 19.663C12.4924 19.663 14.7239 18.7894 16.3481 17.2857L13.1811 14.8292Z" fill="var(--fill-0, #34A853)"/>
<path id="Vector_3" d="M4.0051 9.8321C4.0051 9.17781 4.11415 8.54533 4.31274 7.95073V5.4162H1.04587C0.376652 6.7443 0.000146733 8.24343 0.000146733 9.8321C0.000146733 11.4208 0.3778 12.9199 1.04587 14.248L4.31274 11.7135C4.10939 11.107 4.00551 10.4717 4.0051 9.8321Z" fill="var(--fill-0, #FABB05)"/>
<path id="Vector_4" d="M9.83618 3.89134C11.286 3.89134 12.5842 4.39067 13.6093 5.36637L16.4158 2.5621C14.7112 0.974577 12.4889 2.67029e-05 9.83618 2.67029e-05C5.99422 2.67029e-05 2.66652 2.20396 1.048 5.41573L4.31487 7.95025C5.09428 5.62005 7.27067 3.89134 9.83618 3.89134Z" fill="var(--fill-0, #E94235)"/>
</g>
</svg>
