<svg width="1024" height="1024" viewBox="0 0 1024 1024" fill="none" xmlns="http://www.w3.org/2000/svg">
<path d="M148.102 869.64C138.24 858.245 130.305 849.085 121.509 836.665C90.8223 792.465 70.2003 742.07 61.0963 689.035C35.6002 543.385 81.3203 388.875 165.349 269.284C190.048 234.299 218.152 201.847 249.248 172.402C320.501 105.779 415.334 51.3327 511.911 34.4599C585.731 21.5636 664.696 28.6631 731.841 63.4042C750.126 72.8662 768.671 85.6902 785.536 97.5967C806.246 111.479 824.821 128.51 843.156 145.295C904.556 201.509 942.271 272.961 958.291 354.526C964.026 384.093 966.901 414.144 966.881 444.262C966.001 549.7 927.456 656.85 869.026 744.005C791.666 859.395 664.346 960.505 525.726 987.26C464.338 999.56 400.859 996.465 340.958 978.25C324.833 973.29 310.156 966.465 294.358 961.055C243.384 943.605 194.569 920.035 157.405 879.89C154.364 876.605 150.734 873.225 148.102 869.64Z" fill="#EAE3E3"></path>
<path d="M785.536 97.5957C806.246 111.478 824.821 128.509 843.156 145.294C904.556 201.508 942.271 272.96 958.291 354.525C964.026 384.092 966.901 414.143 966.881 444.261C966.001 549.699 927.456 656.849 869.026 744.004C791.666 859.394 664.346 960.504 525.726 987.259C464.338 999.559 400.859 996.464 340.958 978.249C324.833 973.289 310.156 966.464 294.358 961.054C243.384 943.604 194.569 920.034 157.405 879.889C154.364 876.604 150.734 873.224 148.102 869.639C151.753 871.029 159.259 878.979 162.545 882.014C167.61 886.609 172.856 890.999 178.272 895.179C207.924 918.229 241.605 935.564 277.597 946.299C382.924 976.764 495.935 949.199 589.996 897.464C733.496 818.434 844.471 681.164 890.776 523.999C929.376 392.999 915.996 234.593 819.071 131.248C813.891 125.78 808.576 120.437 803.141 115.222C798.301 110.622 788.381 103.086 785.536 97.5957Z" fill="#BCBCB9"></path>
<path d="M549.31 81.2209C621.61 77.4564 692.725 100.725 748.82 146.499C811.225 198.224 843.25 274.61 850.68 354.012C863.115 486.901 809.665 620.64 725.195 721.57C656.25 803.945 559.775 873.035 453.848 896.685C435.585 900.765 419.54 902.785 400.961 904.455C386.081 904.935 373.043 905.125 358.06 904.03C298.53 899.685 241.605 877.315 197.088 837.295C131.622 778.44 100.185 694.29 96.7558 607.245C91.4003 471.29 147.982 336.692 238.825 236.823C302.386 166.947 384.174 112.534 476.743 90.7269C501.59 84.8729 523.995 82.4144 549.31 81.2209Z" fill="#0A2ECB"></path>
<path d="M542.196 116.749C593.641 113.043 656.596 129.596 700.106 158.358C841.036 251.512 838.686 450.724 769.241 587.559C767.451 591.089 759.866 594.194 756.391 596.284C706.141 626.469 648.796 624.374 600.436 592.069C609.901 579.064 618.236 566.594 626.331 552.444C674.611 468.017 684.546 344.7 603.216 276.551C571.216 249.735 524.231 237.553 482.709 242.222C334.895 258.843 219.564 414.391 232.299 559.854C236.476 607.279 256.861 649.494 293.698 679.464C297.256 682.674 302.51 686.039 306.604 688.559C376.949 731.874 460.989 710.184 523.541 664.064C527.356 668.319 531.351 672.419 535.501 676.344C574.191 712.804 618.166 730.399 671.281 728.959C661.831 739.309 650.386 749.659 639.886 759.054C576.246 816.024 490.086 861.669 403.637 867.194C338.911 871.379 274.196 852.244 225.376 809.299C122.92 719.184 113.198 566.529 153.709 443.836C173.816 382.939 208.86 317.806 252.036 269.213C270.503 248.008 290.582 228.262 312.094 210.152C365.842 165.42 432.611 131.962 501.901 120.705C515.566 118.485 528.406 117.558 542.196 116.749Z" fill="#A28105"></path>
<mask id="mask0_3173_50" style="mask-type:alpha" maskUnits="userSpaceOnUse" x="131" y="116" width="685" height="752">
<path d="M542.196 116.749C593.641 113.043 656.596 129.596 700.106 158.358C841.036 251.512 838.686 450.724 769.241 587.559C767.451 591.089 759.866 594.194 756.391 596.284C706.141 626.469 648.796 624.374 600.436 592.069C609.901 579.064 618.236 566.594 626.331 552.444C674.611 468.017 684.546 344.7 603.216 276.551C571.216 249.735 524.231 237.553 482.709 242.222C334.895 258.843 219.564 414.391 232.299 559.854C236.476 607.279 256.861 649.494 293.698 679.464C297.256 682.674 302.51 686.039 306.604 688.559C376.949 731.874 460.989 710.184 523.541 664.064C527.356 668.319 531.351 672.419 535.501 676.344C574.191 712.804 618.166 730.399 671.281 728.959C661.831 739.309 650.386 749.659 639.886 759.054C576.246 816.024 490.086 861.669 403.637 867.194C338.911 871.379 274.196 852.244 225.376 809.299C122.92 719.184 113.198 566.529 153.709 443.836C173.816 382.939 208.86 317.806 252.036 269.213C270.503 248.008 290.582 228.262 312.094 210.152C365.842 165.42 432.611 131.962 501.901 120.705C515.566 118.485 528.406 117.558 542.196 116.749Z" fill="#FFDF00"></path>
</mask>
<g mask="url(#mask0_3173_50)">
<path d="M555.196 130.749C606.641 127.043 669.596 143.596 713.106 172.358C854.036 265.512 851.686 464.724 782.241 601.559C780.451 605.089 772.866 608.194 769.391 610.284C719.141 640.469 661.796 638.374 613.436 606.069C622.901 593.064 631.236 580.594 639.331 566.444C687.611 482.017 697.546 358.7 616.216 290.551C584.216 263.735 537.231 251.553 495.709 256.222C347.895 272.843 232.564 428.391 245.299 573.854C249.476 621.279 269.861 663.494 306.698 693.464C310.256 696.674 315.51 700.039 319.604 702.559C389.949 745.874 473.989 724.184 536.541 678.064C540.356 682.319 544.351 686.419 548.501 690.344C587.191 726.804 631.166 744.399 684.281 742.959C674.831 753.309 663.386 763.659 652.886 773.054C589.246 830.024 503.086 875.669 416.637 881.194C351.911 885.379 287.196 866.244 238.376 823.299C135.92 733.184 126.198 580.529 166.709 457.836C186.816 396.939 221.86 331.806 265.036 283.213C283.503 262.008 303.582 242.262 325.094 224.152C378.842 179.42 445.611 145.962 514.901 134.705C528.566 132.485 541.406 131.558 555.196 130.749Z" fill="#FFDF00"></path>
</g>
<path d="M481.051 341.72C495.595 341.449 510.149 344.111 522.949 351.088C578.984 381.634 572.754 462.871 546.899 511.065C544.159 506.72 541.144 502.555 537.869 498.592C511.869 466.571 479.028 446.207 437.477 441.915C436.172 445.501 435.235 449.35 434.536 453.114C429.892 478.112 424.758 503.125 420.873 528.235C420.645 529.71 421.447 532.305 421.869 533.74L422.353 534.065C426.548 536.945 432.247 538.56 436.888 540.855C449.052 546.87 457.24 554.18 465.918 564.31C469.969 569.72 475.57 579.325 479.181 585.335C458.771 601.13 435.649 612.15 409.494 613.405C389.926 614.47 370.767 607.52 356.438 594.15C336.86 576.15 329.159 548.34 327.917 522.51C323.918 439.412 394.942 345.207 481.051 341.72Z" fill="#A28105"></path>
<mask id="mask1_3173_50" style="mask-type:alpha" maskUnits="userSpaceOnUse" x="327" y="340" width="239" height="273">
<path d="M481.051 340.72C495.595 340.449 510.149 343.111 522.949 350.088C578.984 380.634 572.754 461.871 546.899 510.065C544.159 505.72 541.144 501.555 537.869 497.592C511.869 465.571 479.028 445.207 437.477 440.915C436.172 444.501 435.235 448.35 434.536 452.114C429.892 477.112 424.758 502.125 420.873 527.235C420.645 528.71 421.447 531.305 421.869 532.74L422.353 533.065C426.548 535.945 432.247 537.56 436.888 539.855C449.052 545.87 457.24 553.18 465.918 563.31C469.969 568.72 475.57 578.325 479.181 584.335C458.771 600.13 435.649 611.15 409.494 612.405C389.926 613.47 370.767 606.52 356.438 593.15C336.86 575.15 329.159 547.34 327.917 521.51C323.918 438.412 394.942 344.207 481.051 340.72Z" fill="#FFDF00"></path>
</mask>
<g mask="url(#mask1_3173_50)">
<path d="M485.686 354.135C499.437 353.879 513.197 356.395 525.299 362.992C578.276 391.871 572.386 468.675 547.942 514.24C545.351 510.132 542.501 506.194 539.405 502.447C514.823 472.173 483.774 452.921 444.49 448.863C443.257 452.254 442.37 455.892 441.709 459.451C437.319 483.085 432.465 506.733 428.792 530.473C428.577 531.868 429.335 534.321 429.734 535.678L430.191 535.985C434.157 538.708 439.545 540.235 443.934 542.405C455.434 548.091 463.175 555.003 471.38 564.58C475.21 569.695 480.505 578.776 483.919 584.458C464.622 599.391 442.762 609.809 418.034 610.996C399.534 612.003 381.42 605.432 367.873 592.792C349.363 575.774 342.083 549.481 340.908 525.061C337.128 446.496 404.276 357.432 485.686 354.135Z" fill="#FFDF00"></path>
</g>
</svg>