<svg width="1024" height="1024" viewBox="0 0 1024 1024" fill="none" xmlns="http://www.w3.org/2000/svg">
<path d="M922.418 512.51C922.418 738.896 738.896 922.418 512.51 922.418C286.124 922.418 102.602 738.896 102.602 512.51C102.602 286.124 286.124 102.602 512.51 102.602C738.896 102.602 922.418 286.124 922.418 512.51Z" fill="#A26910"/>
<mask id="mask0_3218_751" style="mask-type:alpha" maskUnits="userSpaceOnUse" x="102" y="102" width="821" height="821">
<path d="M922.418 512.51C922.418 738.896 738.896 922.418 512.51 922.418C286.124 922.418 102.602 738.896 102.602 512.51C102.602 286.124 286.124 102.602 512.51 102.602C738.896 102.602 922.418 286.124 922.418 512.51Z" fill="#FFDF00"/>
</mask>
<g mask="url(#mask0_3218_751)">
<path d="M922 532C922 752.914 742.914 932 522 932C301.086 932 122 752.914 122 532C122 311.086 301.086 132 522 132C742.914 132 922 311.086 922 532Z" fill="url(#paint0_linear_3218_751)"/>
<path d="M802.149 706.357C769.237 706.357 738.824 696.775 712.995 680.944C737.575 641.366 752.156 594.289 752.156 544.296C752.156 401.815 636.339 285.998 493.858 285.998C351.378 285.998 235.561 401.815 235.561 544.296C235.561 686.776 351.378 802.593 493.858 802.593C550.934 802.593 603.843 783.846 646.337 752.6C690.081 784.263 743.824 803.427 802.149 803.427C837.144 803.427 870.473 796.761 900.885 784.263V674.278C873.389 694.692 839.227 706.357 802.149 706.357ZM640.088 592.622C620.924 572.209 598.427 554.294 572.597 540.13C547.184 526.382 536.163 485.999 509.5 481L494.275 509L493.858 611.37C505.107 614.703 515.939 619.285 526.354 624.701C548.434 636.783 566.765 653.031 580.93 671.778C556.35 688.859 526.354 698.858 494.275 698.858C409.287 699.274 340.129 630.534 340.129 545.546C340.129 460.557 408.87 391.817 493.858 391.817C578.846 391.817 647.587 460.557 647.587 545.546C647.587 562.21 645.087 578.041 640.088 592.622Z" fill="#A26910"/>
<path d="M817.907 675.392C784.995 675.392 754.582 665.81 728.752 649.979C753.332 610.401 767.914 563.324 767.914 513.331C767.914 370.851 652.096 255.033 509.616 255.033C367.136 255.033 251.318 370.851 251.318 513.331C251.318 655.811 367.136 771.629 509.616 771.629C566.691 771.629 619.601 752.881 662.095 721.635C705.839 753.298 759.582 772.462 817.907 772.462C852.902 772.462 886.231 765.796 916.643 753.298V643.313C889.147 663.727 854.985 675.392 817.907 675.392ZM655.846 561.658C636.682 541.244 614.185 523.329 588.355 509.165C562.942 495.417 536.279 486.251 509.616 481.252V580.405C520.864 583.738 531.696 588.321 542.112 593.736C564.192 605.818 582.523 622.066 596.687 640.813C572.107 657.894 542.112 667.893 510.033 667.893C425.044 668.309 355.887 599.569 355.887 514.581C355.887 429.592 424.628 360.852 509.616 360.852C594.604 360.852 663.345 429.592 663.345 514.581C663.345 531.245 660.845 547.076 655.846 561.658Z" fill="url(#paint1_linear_3218_751)"/>
<path d="M97.4464 473.801C92.7076 555.818 112.373 639.956 159.126 714.829C279.678 907.884 534.585 966.237 728.478 845.163C839.673 775.728 906.621 662.358 920.791 541.872C913.312 671.332 845.024 795.511 726.329 869.629C532.436 990.704 277.529 932.351 156.977 739.296C105.56 656.954 86.9071 563.41 97.4464 473.801Z" fill="#FFEFA8"/>
</g>
<path d="M512.5 37C775.111 37.0002 988 249.889 988 512.5C988 775.111 775.111 988 512.5 988C249.889 988 37 775.111 37 512.5C37.0001 249.889 249.889 37 512.5 37ZM512.51 102.602C286.124 102.602 102.602 286.124 102.602 512.51C102.602 622.602 146.004 722.555 216.63 796.197C291.234 873.982 396.211 922.408 512.5 922.408C738.886 922.408 922.407 738.886 922.407 512.5C922.407 402.004 878.687 301.719 807.602 228.001C733.047 150.691 628.394 102.602 512.51 102.602Z" fill="url(#paint2_radial_3218_751)"/>
<defs>
<linearGradient id="paint0_linear_3218_751" x1="648.223" y1="-122.035" x2="317.354" y2="737.236" gradientUnits="userSpaceOnUse">
<stop stop-color="#E9D653"/>
<stop offset="0.6875" stop-color="#E0A40E"/>
</linearGradient>
<linearGradient id="paint1_linear_3218_751" x1="583.981" y1="255.033" x2="368.837" y2="769.008" gradientUnits="userSpaceOnUse">
<stop stop-color="#FFF0A8"/>
<stop offset="1" stop-color="#FFE356"/>
</linearGradient>
<radialGradient id="paint2_radial_3218_751" cx="0" cy="0" r="1" gradientUnits="userSpaceOnUse" gradientTransform="translate(483.221 541.779) rotate(-60.9454) scale(502.412)">
<stop offset="0.971154" stop-color="#FFDF40"/>
<stop offset="1" stop-color="#FFEFA8"/>
</radialGradient>
</defs>
</svg>
