<svg width="405" height="429" viewBox="0 0 405 429" fill="none" xmlns="http://www.w3.org/2000/svg">
<g clip-path="url(#clip0_61_4068)">
<path d="M41.681 372.789C37.3113 367.737 33.7925 363.682 29.897 358.173C16.296 338.585 7.15778 316.253 3.1249 292.747C-8.17603 228.199 12.0859 159.724 49.3258 106.725C60.2721 91.2184 72.7253 76.8374 86.508 63.7904C118.084 34.2661 160.115 10.1398 202.912 2.65898C235.627 -3.05796 270.62 0.0885742 300.379 15.4844C308.48 19.6769 316.701 25.3628 324.178 30.6365C333.356 36.7878 341.585 44.335 349.713 51.7759C376.924 76.6867 393.636 108.356 400.74 144.501C403.28 157.606 404.556 170.923 404.547 184.272C404.157 231 387.077 278.486 361.183 317.108C326.899 368.246 270.474 413.056 209.041 424.915C181.835 430.366 153.702 428.997 127.156 420.922C120.012 418.724 113.506 415.701 106.504 413.299C83.9155 405.566 62.2797 395.12 45.8114 377.331C44.4641 375.873 42.8554 374.375 41.6899 372.789H41.681Z" fill="url(#paint0_radial_61_4068)"/>
<path d="M324.178 30.641C333.356 36.7922 341.585 44.3395 349.713 51.7804C376.924 76.6911 393.636 108.36 400.74 144.506C403.28 157.61 404.556 170.928 404.547 184.276C404.157 231.004 387.077 278.49 361.183 317.113C326.899 368.251 270.474 413.06 209.041 424.915C181.835 430.366 153.702 428.997 127.156 420.922C120.012 418.724 113.506 415.697 106.504 413.299C83.9154 405.566 62.2797 395.12 45.8113 377.327C44.4641 375.873 42.8554 374.375 41.6898 372.784C43.3074 373.4 46.6356 376.924 48.0892 378.271C50.3361 380.309 52.6584 382.255 55.0604 384.107C68.2005 394.323 83.1266 402.007 99.0764 406.763C145.756 420.262 195.839 408.048 237.524 385.118C301.119 350.094 350.303 289.259 370.822 219.61C387.928 161.554 381.998 91.3513 339.042 45.5538C336.746 43.1296 334.393 40.7631 331.982 38.4497C329.837 36.4111 325.441 33.0696 324.182 30.6365L324.178 30.641Z" fill="url(#paint1_linear_61_4068)"/>
<path d="M218.583 48.8998C246.445 47.4507 273.846 56.4161 295.464 74.0544C319.511 93.9883 331.853 123.42 334.716 154.016C339.507 205.225 318.913 256.762 286.362 295.655C259.793 327.399 222.62 354.021 181.799 363.132C174.762 364.705 168.579 365.481 161.418 366.128C155.683 366.314 150.662 366.385 144.887 365.964C121.949 364.289 100.012 355.669 82.8562 340.247C57.6308 317.569 45.5144 285.142 44.1938 251.599C42.1286 199.211 63.9327 147.342 98.939 108.857C123.433 81.9296 154.947 60.963 190.618 52.5605C200.191 50.3047 208.828 49.3563 218.583 48.8954V48.8998Z" fill="url(#paint2_linear_61_4068)"/>
<path d="M216.335 39.1278C239.137 37.4836 267.034 44.8226 286.317 57.5683C348.773 98.8499 347.732 187.139 316.958 247.778C316.165 249.343 312.801 250.717 311.263 251.643C288.994 265.018 263.582 264.092 242.146 249.773C246.343 244.011 250.034 238.485 253.624 232.214C275.02 194.797 279.426 140.149 243.382 109.947C229.201 98.061 208.38 92.6632 189.975 94.7328C124.47 102.098 73.3543 171.034 79.0003 235.498C80.8528 256.513 89.8846 275.224 106.211 288.506C107.789 289.929 110.116 291.422 111.933 292.539C143.11 311.737 180.354 302.12 208.075 281.686C209.768 283.569 211.536 285.386 213.375 287.128C230.521 303.286 250.012 311.081 273.549 310.443C269.361 315.03 264.287 319.617 259.633 323.783C231.43 349.03 193.246 369.257 154.934 371.708C126.247 373.564 97.5693 365.082 75.9335 346.052C30.526 306.118 26.2183 238.463 44.1713 184.09C53.0835 157.101 68.6123 128.237 87.7485 106.703C95.934 97.3032 104.833 88.555 114.366 80.5291C138.186 60.7059 167.777 45.8773 198.484 40.8872C204.538 39.9034 210.233 39.4912 216.34 39.1322L216.335 39.1278Z" fill="#A28105"/>
<mask id="mask0_61_4068" style="mask-type:luminance" maskUnits="userSpaceOnUse" x="34" y="38" width="304" height="334">
<path d="M216.337 39.1276C239.138 37.4834 267.036 44.8223 286.318 57.568C348.775 98.8497 347.733 187.139 316.959 247.778C316.166 249.343 312.802 250.716 311.265 251.643C288.995 265.018 263.584 264.091 242.147 249.772C246.344 244.011 250.036 238.485 253.625 232.214C275.022 194.797 279.427 140.149 243.384 109.947C229.202 98.0608 208.382 92.6629 189.977 94.7326C124.471 102.098 73.3557 171.034 79.0017 235.498C80.8542 256.513 89.8861 275.224 106.213 288.506C107.79 289.928 110.117 291.422 111.934 292.539C143.111 311.737 180.356 302.12 208.076 281.685C209.769 283.569 211.537 285.386 213.376 287.128C230.523 303.286 250.014 311.081 273.551 310.443C269.363 315.03 264.288 319.617 259.635 323.782C231.431 349.03 193.247 369.257 154.935 371.707C126.248 373.564 97.5707 365.082 75.9349 346.052C30.5274 306.118 26.2197 238.463 44.1727 184.09C53.0849 157.1 68.6137 128.237 87.75 106.703C95.9354 97.303 104.834 88.5547 114.367 80.5289C138.188 60.7057 167.778 45.8771 198.486 40.887C204.54 39.9031 210.234 39.491 216.341 39.132L216.337 39.1276Z" fill="#FFDF00"/>
</mask>
<g mask="url(#mask0_61_4068)">
<path d="M222.097 45.3324C244.898 43.6882 272.796 51.0271 292.079 63.7728C354.535 105.054 353.494 193.344 322.72 253.983C321.926 255.547 318.563 256.921 317.025 257.847C294.755 271.222 269.344 270.296 247.908 255.977C252.104 250.216 255.796 244.69 259.386 238.419C280.782 201.002 285.187 146.354 249.144 116.152C234.962 104.266 214.142 98.8678 195.737 100.937C130.232 108.303 79.116 177.239 84.762 241.703C86.6145 262.718 95.6464 281.429 111.973 294.711C113.551 296.133 115.877 297.627 117.694 298.744C148.872 317.942 186.116 308.325 213.836 287.89C215.529 289.774 217.298 291.591 219.137 293.332C236.283 309.49 255.774 317.286 279.311 316.648C275.123 321.235 270.049 325.821 265.395 329.987C237.192 355.235 199.008 375.461 160.695 377.912C132.009 379.769 103.331 371.287 81.6953 352.257C36.2877 312.322 31.9801 244.667 49.933 190.294C58.8452 163.305 74.3741 134.441 93.5103 112.907C101.696 103.508 110.595 94.7595 120.127 86.7337C143.948 66.9105 173.539 52.0819 204.246 47.0918C210.3 46.1079 215.995 45.6958 222.102 45.3368L222.097 45.3324Z" fill="url(#paint3_linear_61_4068)"/>
</g>
<path d="M189.236 138.829C195.679 138.709 202.132 139.888 207.805 142.981C232.64 156.52 229.879 192.519 218.419 213.88C217.204 211.952 215.866 210.109 214.417 208.354C202.894 194.163 188.34 185.136 169.926 183.235C169.35 184.826 168.934 186.527 168.624 188.198C166.567 199.278 164.289 210.361 162.57 221.489C162.468 222.145 162.822 223.293 163.013 223.931L163.226 224.078C165.087 225.354 167.609 226.067 169.669 227.087C175.058 229.755 178.688 232.994 182.535 237.484C184.33 239.881 186.811 244.14 188.411 246.804C179.366 253.801 169.12 258.689 157.526 259.243C148.854 259.713 140.362 256.633 134.012 250.708C125.334 242.731 121.922 230.406 121.372 218.959C119.6 182.131 151.074 140.384 189.236 138.838V138.829Z" fill="#A28105"/>
<mask id="mask1_61_4068" style="mask-type:luminance" maskUnits="userSpaceOnUse" x="121" y="138" width="106" height="121">
<path d="M189.236 138.385C195.68 138.266 202.132 139.444 207.805 142.538C232.64 156.077 229.879 192.076 218.419 213.437C217.205 211.509 215.866 209.665 214.417 207.91C202.895 193.72 188.341 184.692 169.927 182.791C169.351 184.382 168.934 186.084 168.624 187.755C166.568 198.834 164.29 209.918 162.57 221.046C162.468 221.702 162.823 222.85 163.013 223.488L163.226 223.634C165.087 224.91 167.609 225.624 169.67 226.643C175.059 229.311 178.688 232.551 182.535 237.04C184.33 239.438 186.812 243.697 188.412 246.36C179.367 253.358 169.12 258.246 157.527 258.8C148.854 259.27 140.363 256.19 134.012 250.264C125.335 242.287 121.922 229.963 121.373 218.515C119.6 181.688 151.074 139.941 189.236 138.394V138.385Z" fill="#FFDF00"/>
</mask>
<g mask="url(#mask1_61_4068)">
<path d="M191.292 144.333C197.386 144.218 203.484 145.335 208.846 148.26C232.325 161.058 229.715 195.094 218.88 215.29C217.732 213.468 216.469 211.722 215.095 210.065C204.202 196.65 190.441 188.114 173.029 186.319C172.484 187.822 172.089 189.435 171.797 191.012C169.851 201.485 167.702 211.966 166.071 222.487C165.978 223.103 166.31 224.193 166.488 224.791L166.691 224.929C168.451 226.134 170.835 226.812 172.781 227.774C177.877 230.295 181.307 233.358 184.946 237.599C186.643 239.864 188.987 243.892 190.503 246.409C181.95 253.026 172.262 257.644 161.302 258.171C153.104 258.619 145.078 255.707 139.073 250.105C130.87 242.562 127.643 230.911 127.125 220.089C125.45 185.273 155.209 145.8 191.288 144.337L191.292 144.333Z" fill="url(#paint4_linear_61_4068)"/>
</g>
</g>
<defs>
<radialGradient id="paint0_radial_61_4068" cx="0" cy="0" r="1" gradientUnits="userSpaceOnUse" gradientTransform="translate(92.8543 137.122) scale(300.472 300.472)">
<stop offset="0.85" stop-color="#FFDF40"/>
<stop offset="1" stop-color="#FFEFA8"/>
</radialGradient>
<linearGradient id="paint1_linear_61_4068" x1="32.8662" y1="49.5999" x2="322.702" y2="339.436" gradientUnits="userSpaceOnUse">
<stop stop-color="#E9D653"/>
<stop offset="0.69" stop-color="#E0A40E"/>
</linearGradient>
<linearGradient id="paint2_linear_61_4068" x1="104.226" y1="122.024" x2="261.863" y2="279.656" gradientUnits="userSpaceOnUse">
<stop stop-color="#FFF0A8"/>
<stop offset="1" stop-color="#FFE356"/>
</linearGradient>
<linearGradient id="paint3_linear_61_4068" x1="191.66" y1="-24.6359" x2="191.66" y2="344.328" gradientUnits="userSpaceOnUse">
<stop stop-color="#E9D653"/>
<stop offset="0.69" stop-color="#E0A40E"/>
</linearGradient>
<linearGradient id="paint4_linear_61_4068" x1="176.973" y1="42.4828" x2="176.973" y2="359.87" gradientUnits="userSpaceOnUse">
<stop stop-color="#E9D653"/>
<stop offset="0.69" stop-color="#E0A40E"/>
</linearGradient>
<clipPath id="clip0_61_4068">
<rect width="404.542" height="428.19" fill="white"/>
</clipPath>
</defs>
</svg>
