<svg width="950" height="950" viewBox="0 0 950 950" fill="none" xmlns="http://www.w3.org/2000/svg">
<g clip-path="url(#clip0_47_3133)">
<path d="M474.968 899.936C709.671 899.936 899.936 709.671 899.936 474.968C899.936 240.265 709.671 50 474.968 50C240.265 50 50 240.265 50 474.968C50 709.671 240.265 899.936 474.968 899.936Z" fill="#FFDF00" stroke="white" stroke-width="100"></path>
<path d="M474.968 892.385C705.501 892.385 892.385 705.501 892.385 474.968C892.385 244.435 705.501 57.551 474.968 57.551C244.435 57.551 57.551 244.435 57.551 474.968C57.551 705.501 244.435 892.385 474.968 892.385Z" fill="#A28105" stroke="white" stroke-width="84.8983"></path>
<mask id="mask0_47_3133" style="mask-type:alpha" maskUnits="userSpaceOnUse" x="100" y="100" width="750" height="750">
<path d="M474.968 849.936C682.057 849.936 849.936 682.057 849.936 474.968C849.936 267.879 682.057 100 474.968 100C267.879 100 100 267.879 100 474.968C100 682.057 267.879 849.936 474.968 849.936Z" fill="#FFDF00"></path>
</mask>
<g mask="url(#mask0_47_3133)">
<path d="M494.968 868.936C702.057 868.936 869.936 701.057 869.936 493.968C869.936 286.879 702.057 119 494.968 119C287.879 119 120 286.879 120 493.968C120 701.057 287.879 868.936 494.968 868.936Z" fill="#FFDF00"></path>
<path d="M769.344 629.955C739.237 629.955 711.417 621.19 687.789 606.708C710.274 570.504 723.612 527.44 723.612 481.708C723.612 351.373 617.667 245.428 487.331 245.428C356.996 245.428 251.051 351.373 251.051 481.708C251.051 612.044 356.996 717.989 487.331 717.989C539.542 717.989 587.941 700.84 626.813 672.257C666.828 701.221 715.99 718.751 769.344 718.751C801.356 718.751 831.844 712.654 859.664 701.221V600.611C834.512 619.285 803.261 629.955 769.344 629.955ZM621.097 525.916C603.566 507.242 582.987 490.855 559.359 477.897C536.112 465.321 511.722 456.937 487.331 452.364V543.065C497.621 546.114 507.53 550.306 517.057 555.26C537.255 566.312 554.023 581.175 566.981 598.324C544.496 613.949 517.057 623.096 487.713 623.096C409.969 623.477 346.706 560.596 346.706 482.852C346.706 405.108 409.587 342.227 487.331 342.227C565.075 342.227 627.956 405.108 627.956 482.852C627.956 498.096 625.67 512.577 621.097 525.916Z" fill="#A28105"></path>
<path d="M754.344 623.955C724.237 623.955 696.417 615.19 672.789 600.708C695.274 564.504 708.612 521.44 708.612 475.708C708.612 345.373 602.667 239.428 472.331 239.428C341.996 239.428 236.051 345.373 236.051 475.708C236.051 606.044 341.996 711.989 472.331 711.989C524.542 711.989 572.941 694.84 611.813 666.257C651.828 695.221 700.99 712.751 754.344 712.751C786.356 712.751 816.844 706.654 844.664 695.221V594.611C819.512 613.285 788.261 623.955 754.344 623.955ZM606.097 519.916C588.566 501.242 567.987 484.855 544.359 471.897C521.112 459.321 496.722 450.937 472.331 446.364V537.065C482.621 540.114 492.53 544.306 502.057 549.26C522.255 560.312 539.023 575.175 551.981 592.324C529.496 607.949 502.057 617.096 472.713 617.096C394.969 617.477 331.706 554.596 331.706 476.852C331.706 399.108 394.587 336.227 472.331 336.227C550.075 336.227 612.956 399.108 612.956 476.852C612.956 492.096 610.67 506.577 606.097 519.916Z" fill="#0A2ECB"></path>
</g>
<path d="M474.968 867.936C691.998 867.936 867.936 691.998 867.936 474.968C867.936 257.938 691.998 82 474.968 82C257.938 82 82 257.938 82 474.968C82 691.998 257.938 867.936 474.968 867.936Z" stroke="#0A2ECB" stroke-width="36"></path>
<path d="M474.968 867.936C691.998 867.936 867.936 691.998 867.936 474.968C867.936 257.938 691.998 82 474.968 82C257.938 82 82 257.938 82 474.968C82 691.998 257.938 867.936 474.968 867.936Z" stroke="#0A2ECB" stroke-width="36"></path>
</g>
<defs>
<clipPath id="clip0_47_3133">
<rect width="950" height="950" fill="white"></rect>
</clipPath>
</defs>
</svg>