<svg preserveAspectRatio="none" width="100%" height="100%" overflow="visible" style="display: block;" viewBox="0 0 353.133 84.1361" fill="none" xmlns="http://www.w3.org/2000/svg">
<g id="THE CASINO YOU LOVE TO HATE">
<path id="Vector" d="M338.28 75.2257H353.133V83.3953H329.792V46.2607H352.868V54.4303H338.28V60.584H351.542V68.6476H338.28V75.2257Z" fill="var(--fill-0, #0A2ECB)"/>
<path id="Vector_2" d="M325.545 46.2607V54.4303H315.997V83.3953H307.509V54.4303H297.96V46.2607H325.545Z" fill="var(--fill-0, #0A2ECB)"/>
<path id="Vector_3" d="M290.274 83.3953L288.417 77.5599H274.625L272.768 83.3953H263.484L276.11 46.2607H286.932L299.558 83.3953H290.274ZM277.171 69.6024H285.871L281.521 55.9687L277.171 69.6024Z" fill="var(--fill-0, #0A2ECB)"/>
<path id="Vector_4" d="M251.274 46.2607H259.762V83.3953H251.274V68.6476H239.604V83.3953H231.116V46.2607H239.604V60.4779H251.274V46.2607Z" fill="var(--fill-0, #0A2ECB)"/>
<path id="Vector_5" d="M209.557 78.5659C205.809 82.2794 201.246 84.1361 195.871 84.1361C190.495 84.1361 185.933 82.2794 182.184 78.5659C178.435 74.8525 176.561 70.2725 176.561 64.8261C176.561 59.3797 178.435 54.7998 182.184 51.0863C185.933 47.3729 190.495 45.5161 195.871 45.5161C201.246 45.5161 205.809 47.3729 209.557 51.0863C213.306 54.7998 215.181 59.3797 215.181 64.8261C215.181 70.2725 213.306 74.8525 209.557 78.5659ZM188.125 72.7835C190.212 74.8348 192.794 75.8604 195.871 75.8604C198.947 75.8604 201.512 74.8348 203.563 72.7835C205.649 70.7323 206.693 68.0798 206.693 64.8261C206.693 61.5724 205.649 58.92 203.563 56.8687C201.512 54.8175 198.947 53.7918 195.871 53.7918C192.794 53.7918 190.212 54.8175 188.125 56.8687C186.074 58.92 185.049 61.5724 185.049 64.8261C185.049 68.0798 186.074 70.7323 188.125 72.7835Z" fill="var(--fill-0, #0A2ECB)"/>
<path id="Vector_6" d="M176.03 46.2607V54.4303H166.481V83.3953H157.993V54.4303H148.444V46.2607H176.03Z" fill="var(--fill-0, #0A2ECB)"/>
<path id="Vector_7" d="M116.553 75.2257H131.407V83.3953H108.065V46.2607H131.141V54.4303H116.553V60.584H129.815V68.6476H116.553V75.2257Z" fill="var(--fill-0, #0A2ECB)"/>
<path id="Vector_8" d="M81.4255 83.3953L69.3302 46.2607H78.6139L86.8365 73.5812L95.0592 46.2607H104.343L92.2476 83.3953H81.4255Z" fill="var(--fill-0, #0A2ECB)"/>
<path id="Vector_9" d="M63.1866 78.5659C59.4377 82.2794 54.8755 84.1361 49.4998 84.1361C44.1241 84.1361 39.5619 82.2794 35.8131 78.5659C32.0642 74.8525 30.1898 70.2725 30.1898 64.8261C30.1898 59.3797 32.0642 54.7998 35.8131 51.0863C39.5619 47.3729 44.1241 45.5161 49.4998 45.5161C54.8755 45.5161 59.4377 47.3729 63.1866 51.0863C66.9354 54.7998 68.8098 59.3797 68.8098 64.8261C68.8098 70.2725 66.9354 74.8525 63.1866 78.5659ZM41.7546 72.7835C43.8412 74.8348 46.4229 75.8604 49.4998 75.8604C52.5767 75.8604 55.1407 74.8348 57.192 72.7835C59.2786 70.7323 60.3219 68.0798 60.3219 64.8261C60.3219 61.5724 59.2786 58.92 57.192 56.8687C55.1407 54.8175 52.5767 53.7918 49.4998 53.7918C46.4229 53.7918 43.8412 54.8175 41.7546 56.8687C39.7033 58.92 38.6777 61.5724 38.6777 64.8261C38.6777 68.0798 39.7033 70.7323 41.7546 72.7835Z" fill="var(--fill-0, #0A2ECB)"/>
<path id="Vector_10" d="M16.3738 75.2257H29.6362V83.3953H7.88591V46.2607H16.3738V75.2257Z" fill="var(--fill-0, #0A2ECB)"/>
<g id="Group 5877">
<path id="Vector_11" d="M349.725 29.4694C347.473 31.3955 344.599 32.3586 341.102 32.3586C337.605 32.3586 334.731 31.3955 332.479 29.4694C330.227 27.5432 329.101 24.9503 329.101 21.6907V0.621525H336.213V21.0684C336.213 23.9724 337.843 25.4245 341.102 25.4245C344.362 25.4245 345.992 23.9724 345.992 21.0684V0.621525H353.104V21.6907C353.104 24.9503 351.978 27.5432 349.725 29.4694Z" fill="var(--fill-0, #0A2ECB)"/>
<path id="Vector_12" d="M320.38 27.6922C317.239 30.8037 313.416 32.3594 308.912 32.3594C304.407 32.3594 300.585 30.8037 297.444 27.6922C294.303 24.5807 292.732 20.7432 292.732 16.1797C292.732 11.6162 294.303 7.77874 297.444 4.66726C300.585 1.55578 304.407 4.34614e-05 308.912 4.34614e-05C313.416 4.34614e-05 317.239 1.55578 320.38 4.66726C323.521 7.77874 325.091 11.6162 325.091 16.1797C325.091 20.7432 323.521 24.5807 320.38 27.6922ZM302.422 22.8472C304.17 24.5659 306.334 25.4253 308.912 25.4253C311.49 25.4253 313.638 24.5659 315.357 22.8472C317.105 21.1285 317.979 18.906 317.979 16.1797C317.979 13.4535 317.105 11.231 315.357 9.51228C313.638 7.79356 311.49 6.9342 308.912 6.9342C306.334 6.9342 304.17 7.79356 302.422 9.51228C300.703 11.231 299.844 13.4535 299.844 16.1797C299.844 18.906 300.703 21.1285 302.422 22.8472Z" fill="var(--fill-0, #0A2ECB)"/>
<path id="Vector_13" d="M293.173 0.621525L282.727 19.7794V31.7363H275.616V19.7794L265.17 0.621525H273.26L279.171 12.623L285.083 0.621525H293.173Z" fill="var(--fill-0, #0A2ECB)"/>
<path id="Vector_14" d="M247.677 27.6922C244.535 30.8037 240.713 32.3594 236.209 32.3594C231.704 32.3594 227.882 30.8037 224.741 27.6922C221.599 24.5807 220.029 20.7432 220.029 16.1797C220.029 11.6162 221.599 7.77874 224.741 4.66726C227.882 1.55578 231.704 4.34614e-05 236.209 4.34614e-05C240.713 4.34614e-05 244.535 1.55578 247.677 4.66726C250.818 7.77874 252.388 11.6162 252.388 16.1797C252.388 20.7432 250.818 24.5807 247.677 27.6922ZM229.719 22.8472C231.467 24.5659 233.631 25.4253 236.209 25.4253C238.787 25.4253 240.935 24.5659 242.654 22.8472C244.402 21.1285 245.276 18.906 245.276 16.1797C245.276 13.4535 244.402 11.231 242.654 9.51228C240.935 7.79356 238.787 6.9342 236.209 6.9342C233.631 6.9342 231.467 7.79356 229.719 9.51228C228 11.231 227.141 13.4535 227.141 16.1797C227.141 18.906 228 21.1285 229.719 22.8472Z" fill="var(--fill-0, #0A2ECB)"/>
<path id="Vector_15" d="M209.365 0.621525H216.477V31.7363H211.143L199.141 14.8454V31.7363H192.029V0.621525H197.363L209.365 17.5124V0.621525Z" fill="var(--fill-0, #0A2ECB)"/>
<path id="Vector_16" d="M181.349 0.621525H188.461V31.7363H181.349V0.621525Z" fill="var(--fill-0, #0A2ECB)"/>
<path id="Vector_17" d="M166.011 32.3594C162.84 32.3594 160.188 31.6779 158.055 30.3147C155.951 28.922 154.454 27.0403 153.565 24.6696L159.699 21.1137C160.944 23.9881 163.122 25.4253 166.233 25.4253C169.048 25.4253 170.456 24.5807 170.456 22.8916C170.456 21.973 169.997 21.2618 169.078 20.7581C168.189 20.2247 166.5 19.6172 164.011 18.9356C162.707 18.58 161.566 18.18 160.588 17.7355C159.61 17.291 158.647 16.7131 157.699 16.0019C156.78 15.2611 156.069 14.3425 155.565 13.2461C155.091 12.1496 154.854 10.8902 154.854 9.46783C154.854 6.59342 155.877 4.29685 157.921 2.57813C159.996 0.859405 162.455 4.34614e-05 165.3 4.34614e-05C167.848 4.34614e-05 170.1 0.607523 172.056 1.82248C174.012 3.00781 175.553 4.74135 176.679 7.0231L170.678 10.5346C170.115 9.3493 169.419 8.46031 168.589 7.86764C167.759 7.24535 166.663 6.9342 165.3 6.9342C164.233 6.9342 163.403 7.17126 162.811 7.64539C162.248 8.08989 161.966 8.63811 161.966 9.29003C161.966 10.0605 162.322 10.7272 163.033 11.2903C163.774 11.8533 165.285 12.4756 167.567 13.1572C168.811 13.5424 169.775 13.8535 170.456 14.0906C171.138 14.3277 171.997 14.7277 173.034 15.2907C174.101 15.8241 174.901 16.402 175.434 17.0243C175.997 17.6169 176.486 18.417 176.901 19.4246C177.346 20.4025 177.568 21.5285 177.568 22.8027C177.568 25.7661 176.501 28.1071 174.368 29.8258C172.234 31.5149 169.449 32.3594 166.011 32.3594Z" fill="var(--fill-0, #0A2ECB)"/>
<path id="Vector_18" d="M144.895 31.7363L143.34 26.8469H131.783L130.227 31.7363H122.448L133.027 0.621525H142.095L152.674 31.7363H144.895ZM133.916 20.1794H141.206L137.561 8.75582L133.916 20.1794Z" fill="var(--fill-0, #0A2ECB)"/>
<path id="Vector_19" d="M108.003 32.3594C103.35 32.3594 99.4831 30.8185 96.4013 27.7367C93.3491 24.6252 91.823 20.7729 91.823 16.1797C91.823 11.5866 93.3491 7.74911 96.4013 4.66726C99.4831 1.55578 103.35 4.34614e-05 108.003 4.34614e-05C110.788 4.34614e-05 113.366 0.651973 115.737 1.95583C118.108 3.23006 119.974 4.97841 121.338 7.2009L115.204 10.7569C114.522 9.54191 113.544 8.60847 112.27 7.95654C110.996 7.27498 109.573 6.9342 108.003 6.9342C105.247 6.9342 103.039 7.77874 101.38 9.46783C99.7498 11.1569 98.9349 13.3942 98.9349 16.1797C98.9349 18.9653 99.7498 21.2026 101.38 22.8916C103.039 24.5807 105.247 25.4253 108.003 25.4253C109.573 25.4253 110.996 25.0845 112.27 24.4029C113.574 23.7214 114.552 22.7879 115.204 21.6026L121.338 25.1586C120.004 27.3811 118.152 29.1442 115.781 30.4481C113.411 31.7223 110.818 32.3594 108.003 32.3594Z" fill="var(--fill-0, #0A2ECB)"/>
<path id="Vector_20" d="M61.3495 24.8911H73.7954V31.7363H54.2376V0.621525H73.5732V7.46678H61.3495V12.623H72.4619V19.3793H61.3495V24.8911Z" fill="var(--fill-0, #0A2ECB)"/>
<path id="Vector_21" d="M43.5628 0.621525H50.6748V31.7363H43.5628V19.3793H33.7839V31.7363H26.6719V0.621525H33.7839V12.5341H43.5628V0.621525Z" fill="var(--fill-0, #0A2ECB)"/>
<path id="Vector_22" d="M23.1139 0.621525V7.46678H15.1129V31.7363H8.00095V7.46678H0V0.621525H23.1139Z" fill="var(--fill-0, #0A2ECB)"/>
</g>
</g>
</svg>
