<svg preserveAspectRatio="none" width="100%" height="100%" overflow="visible" style="display: block;" viewBox="0 0 347 136" fill="none" xmlns="http://www.w3.org/2000/svg">
<path id="Vector" d="M321.276 110.486C312.702 110.486 304.778 107.968 298.049 103.807C304.453 93.4042 308.251 81.0306 308.251 67.8905C308.251 30.4412 278.078 0 240.957 0C203.837 0 173.663 30.4412 173.663 67.8905C173.663 105.34 203.837 135.781 240.957 135.781C255.827 135.781 269.611 130.853 280.682 122.641C292.079 130.963 306.081 136 321.276 136C330.393 136 339.077 134.248 347 130.963V102.055C339.836 107.42 330.936 110.486 321.276 110.486ZM279.054 80.5926C274.062 75.2271 268.201 70.5185 261.471 66.7955C254.85 63.182 247.904 60.7729 240.957 59.4589V85.5201C243.888 86.3962 246.71 87.6006 249.423 89.0242C255.176 92.1997 259.952 96.4702 263.642 101.398C257.238 105.887 249.423 108.515 241.066 108.515C218.924 108.625 200.906 90.5572 200.906 68.219C200.906 45.8808 218.815 27.8132 240.957 27.8132C263.099 27.8132 281.008 45.8808 281.008 68.219C281.008 72.599 280.357 76.7601 279.054 80.5926ZM49.6025 71.285L24.964 4.70852H0V131.291C7.38067 127.349 16.3894 123.407 26.8092 119.684V67.4525L44.284 114.1C48.0829 113.005 51.9903 111.91 56.1148 110.924L72.3957 67.562V106.982C79.0166 105.559 97.0341 102.493 99.2049 102.164V4.70852H72.3957L49.6025 71.285ZM151.521 6.37294C147.711 8.71626 145.638 13.1291 144.325 17.2683C142.653 22.5572 141.438 27.4518 140.721 32.9597C140.71 33.0692 140.602 33.989 140.233 33.989C139.875 33.989 139.907 33.3321 139.907 33.3321V4.73043H112.664V100.193C122.107 98.9887 131.224 98.2222 139.907 97.7842V48.5308C139.907 46.8883 140.016 45.1362 140.233 43.4937C140.45 42.0702 140.884 40.6467 141.861 39.5517C142.295 39.0042 142.946 38.5662 143.597 38.2377C145.334 37.2522 147.288 37.0332 149.241 36.9237C152.498 36.8142 163.026 36.7047 163.026 36.7047V4.73043H158.033C155.754 4.83993 153.474 5.16843 151.521 6.37294Z" fill="var(--fill-0, white)"/>
</svg>
