<svg preserveAspectRatio="none" width="100%" height="100%" overflow="visible" style="display: block;" viewBox="0 0 25 19.4427" fill="none" xmlns="http://www.w3.org/2000/svg">
<g id="Group">
<path id="Vector" d="M21.2899 15.7952C20.0532 15.7952 18.9105 15.4352 17.9399 14.8403C18.8635 13.3532 19.4114 11.5842 19.4114 9.7057C19.4114 4.35191 15.0595 0 9.7057 0C4.35191 0 0 4.35191 0 9.7057C0 15.0595 4.35191 19.4114 9.7057 19.4114C11.8503 19.4114 13.8384 18.707 15.4352 17.5329C17.0789 18.7226 19.0983 19.4427 21.2899 19.4427C22.6049 19.4427 23.8572 19.1922 25 18.7226V14.5899C23.9668 15.3569 22.6832 15.7952 21.2899 15.7952ZM15.2004 11.5216C14.4803 10.7545 13.6349 10.0814 12.6644 9.54916C11.7095 9.03256 10.7076 8.68816 9.7057 8.50031V12.2261C10.1284 12.3513 10.5354 12.5235 10.9267 12.727C11.7564 13.181 12.4452 13.7915 12.9775 14.4959C12.0539 15.1378 10.9267 15.5135 9.72134 15.5135C6.52786 15.5291 3.92924 12.9461 3.92924 9.75266C3.92924 6.55917 6.51221 3.97621 9.7057 3.97621C12.8992 3.97621 15.4822 6.55917 15.4822 9.75266C15.4822 10.3788 15.3882 10.9737 15.2004 11.5216Z" fill="var(--fill-0, white)"/>
</g>
</svg>
