<svg width="65" height="45" viewBox="0 0 65 45" fill="none" xmlns="http://www.w3.org/2000/svg">
<g clip-path="url(#clip0_216_46612)">
<mask id="mask0_216_46612" style="mask-type:alpha" maskUnits="userSpaceOnUse" x="-2" y="-1" width="67" height="47">
<rect x="-1.24622" y="-0.851562" width="66.2462" height="45.8627" fill="#0322AC"/>
</mask>
<g mask="url(#mask0_216_46612)">
</g>
<g clip-path="url(#clip1_216_46612)">
<path d="M13.6588 -7.84864C14.535 -7.71767 16.0234 -7.10243 16.8959 -6.80022C18.6541 -6.19128 20.6993 -5.74011 22.276 -4.76713C22.5818 -4.57844 23.5054 -2.55632 23.7547 -2.07486C25.5 1.31873 27.2114 4.73057 28.8887 8.16003C29.3886 9.16661 32.1721 14.5805 32.2519 15.1851C32.9586 14.5786 34.1371 13.767 34.904 13.2142C36.9666 11.7278 39.0808 10.2859 41.1532 8.8126C43.1766 7.3602 45.2112 5.92436 47.257 4.50516C47.8648 4.08234 50.2286 2.25574 50.8856 2.30699C52.6356 2.49364 54.4187 2.80397 56.1447 3.16328C57.6833 3.48359 59.9077 3.31112 60.7211 4.89477C60.9371 5.3224 61.0311 5.80426 60.992 6.28589C60.9755 6.51609 60.93 6.80362 60.8684 7.02581C60.2489 9.26087 59.6836 11.4867 59.061 13.7237C58.7477 14.8499 58.3028 15.3289 57.2929 15.8754C56.8374 16.1218 56.3051 16.4575 55.8507 16.7242L51.3392 19.3683L42.011 24.8859C40.7115 25.6486 39.3506 26.4919 38.037 27.21C38.1162 27.4057 38.302 27.7326 38.4053 27.9597C38.8442 28.9245 39.3375 29.8877 39.7416 30.8673C39.9094 30.7658 40.0813 30.6718 40.2569 30.5854C41.393 30.0129 42.4953 29.5469 43.7186 29.2698C46.5799 28.6218 49.0248 30.9876 47.9376 33.9356C47.3325 35.5762 45.9554 36.3647 44.6147 37.3366C44.0942 37.7139 43.4732 38.154 42.9081 38.4338C43.1072 38.887 43.4146 39.3525 43.6294 39.8009C44.3302 41.2647 45.2125 42.7336 45.8546 44.2112C47.8067 43.9994 49.5901 45.6126 49.4816 47.6492C49.3306 50.4866 46.8571 51.0898 44.9115 52.4311C42.8594 53.8458 40.5647 55.0874 38.5856 52.8365C37.516 51.5735 37.811 50.1513 38.3312 48.7329C37.7584 47.7073 36.9784 46.6821 36.3888 45.6564C35.9296 44.8576 35.3159 44.071 34.937 43.2259C34.6672 43.4425 34.1687 43.679 33.8546 43.8531C32.7344 44.4704 31.4516 45.1256 30.1436 45.0193C28.2401 44.8646 26.8251 43.1533 27.0381 41.2065C27.2348 39.4096 28.5803 38.2544 29.8308 37.1664C29.1278 35.8537 28.2983 34.6986 27.6419 33.3067C26.3881 33.8912 25.1105 34.7544 23.8716 35.3951C23.8167 35.4234 23.5619 35.5877 23.5741 35.644C23.7428 36.4221 24.1029 37.1548 24.2427 37.9493C24.3293 38.5386 24.2971 39.2529 24.1688 39.7715C23.9395 40.6761 23.3667 41.4539 22.5773 41.9328C21.8234 42.3963 20.6948 42.6332 19.8602 42.3826C18.0559 41.8408 17.0058 40.027 16.1174 38.5044C14.9077 39.2029 13.6893 39.8855 12.4626 40.5521C11.8607 40.8795 10.9162 41.3541 10.3711 41.7226C10.3042 42.2858 10.1344 43.0796 9.83483 43.5634C8.84206 45.1669 6.75457 45.7496 5.16561 44.8035C4.76006 44.5622 4.40429 44.2436 4.11704 43.8654C3.44926 42.9949 2.967 41.8795 2.42313 40.9251C1.41473 39.1554 0.0594115 37.3274 1.31383 35.2375C1.78702 34.457 2.54398 33.8975 3.41731 33.6828C4.35186 33.4468 5.33649 33.6028 6.14944 34.1157C6.70681 33.6704 7.43305 33.203 8.03246 32.7955C9.15926 32.027 10.2933 31.2697 11.4344 30.5237C11.1484 30.0834 10.7915 29.3399 10.5466 28.8582C9.83551 27.4591 8.91944 25.7544 9.14206 24.112C9.27683 23.1727 9.76809 22.3214 10.5098 21.7417C11.7077 20.8075 13.4671 20.8327 14.6883 21.6755C16.0363 22.6059 17.0388 24.1771 18.0089 25.5019C19.1379 24.724 20.32 23.7327 21.5164 23.0255C20.8103 21.6267 19.4283 19.5743 18.5656 18.1661L11.889 7.33464L10.2944 4.76038C9.86482 4.07463 9.00058 2.92473 9.09137 2.09997C9.33706 -0.132275 10.1453 -2.359 10.5741 -4.57348C10.9323 -6.42318 11.4776 -7.93015 13.6588 -7.84864Z" fill="#FEFEFE"/>
<path d="M31.7729 17.1297C32.2364 16.8417 32.8289 16.3866 33.2849 16.0596L36.2146 13.9662L46.2642 6.87453L48.9844 4.94701C49.4854 4.59174 49.9795 4.22571 50.5026 3.90529C51.0573 3.56553 51.723 3.75235 52.3143 3.86163C52.9942 3.98729 53.6723 4.13512 54.3536 4.25534L57.5255 4.80292C57.9461 4.87958 58.3731 4.94502 58.7899 5.03807C60.2089 5.35497 59.5258 6.91853 59.2515 7.8564L58.5802 10.1966C58.2311 11.4276 57.9166 12.6558 57.5838 13.8899C57.509 14.1671 57.2635 14.3238 57.0183 14.474C55.721 15.2688 54.3818 16.0254 53.0684 16.7911L46.7469 20.5304L39.7142 24.7011C38.6549 25.3226 37.393 26.1103 36.3172 26.6634C37.2698 28.6294 38.1546 30.7038 39.1276 32.6497C39.2958 32.55 39.5754 32.3894 39.7538 32.3145C41.5118 31.5767 45.306 29.1626 46.6267 31.6163C46.8949 32.1124 46.9541 32.6998 46.7908 33.2454C46.5166 34.1901 45.7972 34.8395 45.0386 35.391C43.7862 36.3015 42.5167 37.1793 41.1767 37.9507C41.6449 38.775 42.1107 39.7422 42.5443 40.5952C43.4021 42.2998 44.2733 43.9973 45.1576 45.6876C47.9232 44.8842 49.3 47.9613 47.1191 49.5127C45.7887 50.393 44.413 51.1744 43.0614 52.0226C42.0016 52.6876 41.1324 53.0235 39.9747 52.2895C39.1019 51.7361 38.9262 50.2492 39.4994 49.4149C39.6848 49.1806 39.8037 49.0524 40.0097 48.8431L37.1142 44.2514C36.5609 43.3667 35.9369 42.3168 35.3463 41.4783C34.4336 41.9882 32.2107 43.3092 31.3267 43.5403C30.9158 43.6498 30.4873 43.6668 30.0711 43.5903C29.5354 43.4912 28.9521 43.1752 28.6692 42.6928C27.5723 40.8224 29.5406 39.1769 30.812 38.0877C31.08 37.8581 31.331 37.6593 31.6101 37.4721C31.2227 36.9469 30.6341 35.872 30.287 35.2729L28.0809 31.4746C25.9914 32.6767 23.8934 33.8631 21.7871 35.034C22.5878 36.8875 24.1894 40.1931 21.2366 41.0549C19.1453 41.6652 17.5024 38.1903 16.5675 36.77C16.2168 36.9308 15.8039 37.1503 15.4675 37.3467C13.3254 38.5975 11.0734 39.7293 8.93884 40.983C9.32607 42.469 8.49322 43.7984 6.9266 43.8777C4.98464 43.976 4.3819 41.395 3.45673 40.0706C3.18652 39.6838 2.23187 37.929 2.16625 37.5326C1.78612 35.236 4.42864 33.9958 6.0054 35.7956L13.1954 30.9291C12.3635 29.5928 11.6809 28.1516 10.9892 26.7267C10.3464 25.52 10.0768 23.7359 11.3572 22.8068C13.8541 20.9953 16.4869 25.6685 17.6465 27.3912C19.4968 26.0669 21.541 24.704 23.3384 23.3464C22.9492 22.8292 22.2931 21.6737 21.9353 21.0846L19.2435 16.6632L12.9849 6.51159C12.5769 5.85154 10.5122 2.64221 10.3682 2.1375C10.8644 -0.412116 11.6554 -3.05556 12.2527 -5.59252C12.4044 -6.2367 12.7308 -6.47961 13.3719 -6.45155C15.8855 -5.72672 18.3482 -4.80555 20.8484 -4.03164C21.5544 -3.81314 22.1572 -2.26388 22.4921 -1.59736L24.2169 1.83161C26.7801 6.90765 29.2988 12.0072 31.7729 17.1297Z" fill="#07258C"/>
<path d="M13.1124 -5.60547C14.9551 -5.10078 16.7812 -4.33017 18.6384 -3.83123C19.3017 -3.65303 20.0375 -3.40557 20.6795 -3.16958C21.3674 -2.01847 22.1114 -0.440784 22.7229 0.777742L25.6987 6.67385C28.6784 12.6609 31.6085 18.6739 34.4888 24.7121L38.3715 32.9884C37.3254 33.6535 36.2674 34.1792 35.1325 34.9195C34.2005 35.5127 33.1191 36.2294 32.2966 36.9575C31.5672 35.849 30.81 34.4458 30.1332 33.2759L26.5219 27.0904C22.9856 21.0782 19.3692 15.1159 15.6735 9.20521C14.2475 6.91291 12.7079 4.23704 11.2391 2.0426L13.1124 -5.60547Z" fill="#FA64ED"/>
<path d="M17.3072 -2.29645C17.7788 -2.23263 18.653 -1.91223 19.1287 -1.74849C19.6106 -1.02256 20.429 0.645745 20.8721 1.48969L24.255 7.93875L31.1689 21.2077C32.7833 24.3223 34.3913 27.4405 35.9767 30.5707C36.3289 31.266 36.5547 31.5554 35.8536 32.0322C35.7777 32.0245 35.7028 32.0103 35.6294 31.9898C35.3971 31.9265 35.3365 31.8292 35.2191 31.6175C34.7316 30.7382 34.2744 29.8211 33.8133 28.9272L30.9117 23.2648L21.9415 6.09444C20.7904 3.9218 19.5401 1.34084 18.3337 -0.769258C17.8497 -0.962818 17.12 -1.07001 16.8326 -1.55214C16.6404 -1.87439 17.0686 -2.17751 17.3072 -2.29645Z" fill="#FEFEFE"/>
<path d="M58.0278 5.78847C58.1407 5.79482 58.7104 5.93003 58.8543 5.96217C58.2139 8.48677 57.4778 11.0149 56.8265 13.5527C56.4028 13.8718 55.2342 14.517 54.7459 14.8014L50.9577 17.0297L41.4428 22.679C39.6215 23.7581 37.7413 24.8148 35.9505 25.9397C35.8143 25.4208 34.8111 23.4113 34.5321 22.8317C33.8859 21.4863 32.6981 19.2176 32.1731 17.8958C32.7665 17.5209 33.4944 16.9747 34.0798 16.5581L37.448 14.1594L46.2931 7.91162L49.3398 5.76302C49.8052 5.43691 50.7015 4.7755 51.1791 4.56059C52.3318 4.7151 53.5105 4.99036 54.6547 5.21309C55.7764 5.41968 56.9009 5.61149 58.0278 5.78847Z" fill="#FA64ED"/>
<path d="M56.2355 7.54425C56.6606 7.62815 56.8964 7.88944 56.794 8.35093C56.6612 8.94977 56.4873 9.55957 56.3085 10.1479C56.0761 10.9122 55.8874 11.7303 55.614 12.4764C55.2255 12.7735 54.0126 13.4397 53.5196 13.7371L48.9612 16.4704C48.4983 16.7489 47.0855 17.6658 46.677 17.7868C46.1557 17.6492 45.8027 17.1181 46.3349 16.7501C47.2219 16.1367 48.1863 15.588 49.1111 15.0299C50.9577 13.9062 52.8123 12.7962 54.6748 11.7004C55.0104 10.5114 55.3355 8.98145 55.7514 7.80851C55.8068 7.65255 56.0743 7.59217 56.2355 7.54425Z" fill="#FEFEFE"/>
<path d="M44.9349 31.3893C45.1931 31.4357 45.3959 31.5095 45.5994 31.6813C45.848 31.8912 45.9833 32.1722 46.0054 32.5019C46.041 33.0353 45.7643 33.5801 45.4245 33.9722C44.1556 35.4364 33.6478 41.6517 31.5521 42.5491C31.1839 42.7068 30.7805 42.7461 30.3873 42.7692C28.5317 42.3821 29.1329 40.7773 30.1796 39.7941C33.7319 36.4574 38.0669 33.8765 42.5008 31.9855C43.2733 31.6561 44.0975 31.397 44.9349 31.3893Z" fill="#FA64ED"/>
<path d="M43.7459 32.3742C44.0324 32.4241 44.2306 32.6644 44.2004 32.965C44.1229 33.1701 43.7934 33.366 43.6006 33.427C42.1916 33.8728 40.8803 34.4963 39.5893 35.2245C39.0843 35.5093 38.5789 35.8329 38.0521 36.0875C37.9553 36.0754 37.8678 36.0462 37.7799 36.0043C37.6729 35.9533 37.5788 35.8689 37.5457 35.7512C37.5174 35.6508 37.5468 35.5487 37.5983 35.4606C38.1181 34.5726 42.5474 32.6842 43.7459 32.3742Z" fill="#FEFEFE"/>
<path d="M35.011 37.032C35.2876 37.1964 35.4592 37.4033 35.3952 37.7368C35.157 38.0574 33.4628 39.2752 33.0283 39.4572C32.8499 39.3988 32.7581 39.3144 32.6537 39.1661C32.638 39.0746 32.6119 39.012 32.6449 38.9292C32.8691 38.3668 34.5261 37.2651 35.011 37.032Z" fill="#FEFEFE"/>
<path d="M12.7946 23.2497C13.8756 23.4564 15.2719 25.4452 15.9188 26.355C18.0111 29.2767 19.7778 32.4284 21.1866 35.7526C21.7849 37.1668 23.2065 40.05 20.6233 40.2456C20.3218 40.1658 20.0673 40.0526 19.8218 39.855C18.2606 38.5993 12.598 28.3485 11.7013 26.2748C11.5101 25.8326 11.3364 25.3434 11.2871 24.8586C11.2487 24.4801 11.3344 24.0602 11.5819 23.7639C11.8976 23.3857 12.3359 23.2864 12.7946 23.2497Z" fill="#FA64ED"/>
<path d="M14.1453 25.5286C14.6643 25.7844 17.7931 30.934 18.3867 31.9359C18.8375 32.6967 20.7516 36.2724 20.8154 37.3775C20.8231 37.5091 20.4636 37.6709 20.3077 37.7468L20.131 37.7155C20.0036 37.6449 19.9194 37.4997 19.8645 37.366C18.2561 33.454 16.0156 29.8785 13.6944 26.3795C13.3894 25.9198 13.7737 25.7019 14.1453 25.5286Z" fill="#FEFEFE"/>
<path d="M23.7531 24.093C24.9275 26.2122 26.3915 28.5761 27.6379 30.6978C25.7908 31.8378 23.7222 32.9679 21.8305 34.0615L21.4552 34.2735C20.7109 32.7069 19.9696 31.2084 19.0831 29.7177C18.8181 29.2721 18.3896 28.4753 18.0613 28.0977C19.8074 26.9734 22.0426 25.3387 23.7531 24.093Z" fill="#FA64ED"/>
<path d="M40.4377 38.4075C40.527 38.4467 44.1051 45.4715 44.4647 46.1357C43.2619 46.8022 41.9631 47.6958 40.7912 48.3123C40.6333 48.2756 40.6693 48.2604 40.5523 48.0766C39.9587 47.2461 39.2105 45.9934 38.6596 45.1094L36.0813 41.0053C37.4663 40.2649 39.0732 39.2314 40.4377 38.4075Z" fill="#FA64ED"/>
<path d="M40.6419 41.6203C40.9121 41.667 41.0755 41.8084 41.076 42.09C40.8858 42.5524 39.6211 43.1737 39.1564 43.4368C38.9006 43.4118 38.7461 43.2285 38.7457 42.9719C38.9242 42.5147 40.1876 41.8814 40.6419 41.6203Z" fill="#07258C"/>
<path d="M41.949 44.1376C42.1496 44.2112 42.2089 44.2373 42.3442 44.3991C42.4971 44.9861 41.0817 45.6016 40.631 45.8193C40.4398 45.7928 40.413 45.7672 40.2586 45.6564C40.0099 45.066 41.5212 44.3754 41.949 44.1376Z" fill="#07258C"/>
<path d="M13.5714 31.6615C13.8267 32.0204 14.4005 33.0817 14.6499 33.5084C15.0868 34.256 15.7611 35.2842 16.1217 36.0376C13.7328 37.3775 11.2468 38.6867 8.88713 40.0659L8.55562 40.2575C7.87267 39.018 7.1215 37.7449 6.4085 36.5202C7.36016 35.9326 8.41075 35.1894 9.34507 34.5536C10.7587 33.597 12.1675 32.633 13.5714 31.6615Z" fill="#FA64ED"/>
<path d="M11.6258 34.2698C11.7539 34.3079 11.8874 34.3538 11.9633 34.4695C12.1951 34.8232 12.9531 35.946 12.9089 36.337C12.8473 36.5071 12.7086 36.5852 12.563 36.694C12.1084 36.6483 11.3663 35.1479 11.3033 34.6854C11.286 34.5584 11.5384 34.3472 11.6258 34.2698Z" fill="#07258C"/>
<path d="M9.26784 35.8666C9.68653 35.9987 10.4862 37.3781 10.4681 37.7658C10.3947 37.9368 10.2324 38.0013 10.0682 38.0954C9.99546 38.0927 9.92814 38.0564 9.8597 38.0276C9.53672 37.6401 8.90751 36.7113 8.94261 36.1883C9.00405 36.0091 9.10716 35.9673 9.26784 35.8666Z" fill="#07258C"/>
<path d="M46.2101 46.3883C47.3456 46.5583 47.7238 47.8206 46.8877 48.6182C46.5636 48.8797 46.0091 49.2833 45.6502 49.4515C44.6406 49.9246 42.1585 51.9113 41.1641 51.8432C39.8816 51.6433 39.6622 50.3452 40.5251 49.514C40.8507 49.2004 42.1276 48.4472 42.5733 48.2196C43.5043 47.7443 45.276 46.3693 46.2101 46.3883Z" fill="#FA64ED"/>
<path d="M4.25453 35.7727C4.6646 35.8375 5.06361 35.9582 5.30295 36.3397C6.16425 37.7105 6.91792 39.0996 7.74292 40.4989C8.11409 41.1285 8.44755 41.7535 7.93795 42.4832C7.67603 42.8582 7.35361 42.97 6.91476 43.0345C6.63214 43.0184 6.36523 42.9872 6.13085 42.8128C5.73319 42.517 3.06484 37.8584 3.00591 37.365C2.96025 36.9826 3.02205 36.5812 3.25837 36.2684C3.52385 35.9169 3.8423 35.8267 4.25453 35.7727Z" fill="#FA64ED"/>
<path d="M4.79841 37.3792C4.89999 37.3971 5.00934 37.4142 5.10621 37.45C5.41572 37.5643 6.73627 40.021 6.94833 40.4585C7.03242 40.6321 7.08619 40.8036 7.00976 40.9961C6.94844 41.1505 6.81433 41.205 6.67582 41.2668C6.60606 41.2558 6.53719 41.2398 6.46971 41.2189C6.38585 41.1933 6.24868 41.1462 6.19905 41.071C5.57966 40.1292 5.04999 39.117 4.48771 38.1377C4.27192 37.7618 4.45589 37.533 4.79841 37.3792Z" fill="#FEFEFE"/>
</g>
</g>
<defs>
<clipPath id="clip0_216_46612">
<rect width="65" height="45" fill="white"/>
</clipPath>
<clipPath id="clip1_216_46612">
<rect width="53.0325" height="54.387" fill="white" transform="translate(11.0753 -8.73389) rotate(14.199)"/>
</clipPath>
</defs>
</svg>
