<svg style="display: block;" viewBox="0 0 85.6736 91.3397" fill="none" xmlns="http://www.w3.org/2000/svg">
<g id="Group 5077">
<path id="Union" d="M66.7657 2.09359C67.7597 2.05335 68.9753 2.23615 70.1172 3.00081C71.2807 3.78006 71.901 4.84883 72.2344 5.70199L72.2373 5.7098L72.2383 5.71273L72.4453 6.2596C74.4323 11.6685 74.836 17.2273 73.6504 22.8612H78.3438C81.2405 22.8613 83.5888 25.2096 83.5889 28.1063V44.3455C83.5887 47.0787 81.4977 49.3226 78.8282 49.5672V81.4139C78.8278 84.3102 76.4794 86.658 73.583 86.658H51.1153C50.2051 88.2112 48.5204 89.2545 46.5889 89.2547H39.085C37.1533 89.2546 35.4679 88.2115 34.5577 86.658H12.0528C9.15642 86.658 6.80798 84.3101 6.80765 81.4139V49.5643C4.15622 49.3021 2.08518 47.0658 2.085 44.3455V28.1063C2.08507 25.2095 4.43337 22.8612 7.33011 22.8612H12.4082C11.1827 17.0372 11.656 11.2936 13.8203 5.71273L13.8213 5.7098L13.8243 5.70199C14.1577 4.84882 14.7779 3.78007 15.9414 3.00081C17.0833 2.23613 18.299 2.05337 19.293 2.09359V2.09261H19.294L19.42 2.09652C23.9716 2.37292 28.3169 3.38754 32.2227 5.60824C35.498 7.47053 38.3006 10.0915 40.6153 13.535H45.4434C47.7581 10.0914 50.5606 7.47055 53.836 5.60824C57.7418 3.38751 62.087 2.37293 66.6387 2.09652C66.6806 2.09397 66.7227 2.09262 66.7647 2.09261H66.7657V2.09359Z" stroke="var(--stroke-0, white)" stroke-width="4.16996" stroke-linejoin="round"/>
<path id="Rectangle 2179" d="M75.6785 44.3348V81.413C75.6785 82.5696 74.7404 83.5077 73.5838 83.5077H12.0535C10.8968 83.5077 9.95878 82.5696 9.95878 81.413V44.3348H75.6785Z" fill="var(--fill-0, #FF63F6)" stroke="var(--stroke-0, #0B2595)" stroke-width="2.13078"/>
<path id="Union_2" d="M39.3308 23.4197C39.3282 24.3953 39.3259 25.284 39.3239 25.9285C39.3229 26.2504 39.3216 26.5115 39.321 26.6922V26.9734C39.3191 27.5413 38.8727 28.0024 38.3122 28.032L38.3132 28.034H38.3034C38.2967 28.0343 38.2866 28.0352 38.2741 28.0359C38.2491 28.0373 38.2134 28.0394 38.1706 28.0418C38.0849 28.0465 37.9705 28.0521 37.8561 28.0584C37.7417 28.0647 37.6273 28.0711 37.5417 28.0759C37.499 28.0784 37.4641 28.0804 37.4401 28.0818C37.4297 28.0824 37.4223 28.0825 37.4177 28.0828C37.4197 28.0826 37.4255 28.0824 37.4323 28.0818C37.4359 28.0815 37.4468 28.0805 37.4606 28.0789C37.467 28.0781 37.4831 28.0763 37.5036 28.073C37.5143 28.0713 37.5414 28.0665 37.5573 28.0633C37.5752 28.0592 37.6154 28.0468 37.655 28.0349C37.614 28.0349 37.5709 28.0349 37.5261 28.0349C37.0597 28.035 36.3894 28.0358 35.5749 28.0359C33.9458 28.0361 31.7384 28.0357 29.4255 28.0359C24.7997 28.0363 19.7502 28.0364 18.0583 28.0349C17.5859 28.0345 17.17 27.7235 17.0368 27.2703C16.8345 26.5817 16.5904 25.9114 16.3366 25.1824C16.0879 24.468 15.8345 23.7103 15.6472 22.9177C14.3548 17.4462 14.7267 12.0877 16.7575 6.85134L16.7585 6.84938C16.9406 6.38344 17.2275 5.9314 17.694 5.61891C18.1672 5.30202 18.7032 5.20933 19.2282 5.24098H19.2292C23.4413 5.49682 27.2858 6.42571 30.6657 8.34743C34.0537 10.2738 36.9147 13.1648 39.2048 17.2508C39.2939 17.4098 39.3415 17.5889 39.3415 17.7713C39.3415 19.1681 39.3359 21.469 39.3308 23.4197Z" fill="var(--fill-0, #FFDF00)" stroke="var(--stroke-0, #0B2595)" stroke-width="2.13078" stroke-linejoin="round"/>
<path id="Union_3" d="M46.7275 23.4197C46.7301 24.3953 46.7324 25.284 46.7343 25.9285C46.7353 26.2504 46.7367 26.5115 46.7373 26.6922V26.9734C46.7391 27.5413 47.1855 28.0024 47.746 28.032L47.7451 28.034H47.7548C47.7615 28.0343 47.7717 28.0352 47.7841 28.0359C47.8091 28.0373 47.8448 28.0394 47.8876 28.0418C47.9734 28.0465 48.0878 28.0521 48.2021 28.0584C48.3165 28.0647 48.431 28.0711 48.5166 28.0759C48.5593 28.0784 48.5941 28.0804 48.6181 28.0818C48.6285 28.0824 48.6359 28.0825 48.6406 28.0828C48.6385 28.0826 48.6328 28.0824 48.6259 28.0818C48.6224 28.0815 48.6114 28.0805 48.5976 28.0789C48.5912 28.0781 48.5751 28.0763 48.5546 28.073C48.5439 28.0713 48.5169 28.0665 48.5009 28.0633C48.4831 28.0592 48.4429 28.0468 48.4033 28.0349C48.4443 28.0349 48.4874 28.0349 48.5322 28.0349C48.9985 28.035 49.6689 28.0358 50.4833 28.0359C52.1125 28.0361 54.3198 28.0357 56.6328 28.0359C61.2586 28.0363 66.3081 28.0364 68 28.0349C68.4723 28.0345 68.8883 27.7235 69.0214 27.2703C69.2238 26.5817 69.4678 25.9114 69.7216 25.1824C69.9704 24.468 70.2238 23.7103 70.4111 22.9177C71.7035 17.4462 71.3315 12.0877 69.3007 6.85134L69.2998 6.84938C69.1177 6.38344 68.8307 5.9314 68.3642 5.61891C67.891 5.30202 67.355 5.20933 66.83 5.24098H66.8291C62.6169 5.49682 58.7724 6.42571 55.3925 8.34743C52.0045 10.2738 49.1436 13.1648 46.8535 17.2508C46.7643 17.4098 46.7167 17.5889 46.7167 17.7713C46.7167 19.1681 46.7223 21.469 46.7275 23.4197Z" fill="var(--fill-0, #FFDF00)" stroke="var(--stroke-0, #0B2595)" stroke-width="2.13078" stroke-linejoin="round"/>
<path id="Vector" d="M57.7688 16.0489L46.2641 20.8796L47.1147 19.1541L45.2987 18.2581L43.4174 22.0757L38.8762 23.9848L39.6585 25.8499L49.7814 21.5984L53.9851 23.6734L54.8811 21.8574L52.2536 20.5618L58.5511 17.914L57.7688 16.0489Z" fill="var(--fill-0, #0B2595)"/>
<path id="Vector_2" d="M27.4992 16.0489L39.0039 20.8796L38.1533 19.1541L39.9694 18.2581L41.8507 22.0757L46.3919 23.9848L45.6095 25.8499L35.4867 21.5984L31.283 23.6734L30.387 21.8574L33.0145 20.5618L26.7169 17.914L27.4992 16.0489Z" fill="var(--fill-0, #0B2595)"/>
<rect id="Rectangle 2180" x="5.23454" y="26.0115" width="75.203" height="20.4283" rx="2.09478" fill="var(--fill-0, #FF63F6)" stroke="var(--stroke-0, #0B2595)" stroke-width="2.13078"/>
<rect id="Rectangle 2182" x="35.2193" y="46.1981" width="15.2342" height="39.9064" rx="2.09478" fill="var(--fill-0, #FFDF00)" stroke="var(--stroke-0, #0B2595)" stroke-width="2.13078"/>
<rect id="Rectangle 2181" x="35.2193" y="26.0115" width="15.2342" height="20.4283" rx="2.09478" fill="var(--fill-0, #FFDF00)" stroke="var(--stroke-0, #0B2595)" stroke-width="2.13078"/>
<path id="Union_4" d="M40.5406 50.0433C40.5407 50.0638 40.5369 50.0845 40.5358 50.1048C40.5317 53.0273 40.5286 55.9498 40.525 58.8724C40.5214 61.8152 40.5184 64.7586 40.5143 67.7015V68.679C40.5143 69.1108 40.2533 69.5 39.8541 69.6644C39.4549 69.8287 38.996 69.7356 38.692 69.429C37.8696 68.5996 37.0383 67.8464 36.1949 67.0619C35.3809 66.3045 34.5637 65.525 33.8024 64.6712C33.8008 64.6697 33.7991 64.6679 33.7975 64.6663C33.3743 64.2524 32.8614 63.7818 32.3824 63.2874C30.4312 65.2271 28.4541 67.1435 26.4938 69.057C26.3927 69.1557 26.2513 69.2779 26.0338 69.4779C25.7226 69.7639 25.2714 69.8392 24.8844 69.6693C24.4975 69.4993 24.2477 69.1163 24.2477 68.6937V50.0472C24.2477 50.0351 24.2502 50.0231 24.2506 50.0111C24.2506 48.5085 24.2515 47.0039 24.2535 45.5023V45.4329C24.2617 42.3387 24.2247 39.1924 24.2887 36.0648L24.2994 35.7591C24.4405 32.6185 25.7766 29.9443 28.3785 28.0335L28.649 27.8402C30.0107 26.8928 31.5871 26.1882 33.3873 26.0433C34.7512 25.8419 36.1626 25.9453 37.3385 25.9554C37.5558 25.9543 37.8829 25.9429 38.2955 25.929C38.7022 25.9154 39.1751 25.9008 39.65 25.8949C40.1232 25.889 40.6132 25.8918 41.0533 25.9163C41.4707 25.9397 41.9277 25.9858 42.2926 26.097C42.7328 26.2312 43.0365 26.633 43.0465 27.0931C43.0565 27.5531 42.7704 27.9672 42.3365 28.1204C41.6752 28.3539 41.2294 28.6736 40.9518 29.0218C40.682 29.3602 40.5268 29.779 40.526 30.3089V30.3099C40.5157 35.3494 40.5286 40.3904 40.5348 45.4339V45.4349C40.5348 46.9712 40.5386 48.5041 40.5406 50.0433Z" fill="var(--fill-0, #FFDF00)" stroke="var(--stroke-0, #0B2595)" stroke-width="2.13078" stroke-linejoin="round"/>
<path id="Union_5" d="M45.5176 50.0433C45.5176 50.0638 45.5213 50.0845 45.5225 50.1048C45.5266 53.0273 45.5297 55.9498 45.5332 58.8724C45.5368 61.8152 45.5399 64.7586 45.544 67.7015V68.679C45.544 69.1108 45.8049 69.5 46.2041 69.6644C46.6033 69.8287 47.0623 69.7356 47.3662 69.429C48.1886 68.5996 49.0199 67.8464 49.8633 67.0619C50.6774 66.3045 51.4945 65.525 52.2559 64.6712C52.2575 64.6697 52.2592 64.6679 52.2608 64.6663C52.6839 64.2524 53.1969 63.7818 53.6758 63.2874C55.6271 65.2271 57.6042 67.1435 59.5645 69.057C59.6656 69.1557 59.8069 69.2779 60.0244 69.4779C60.3357 69.7639 60.7868 69.8392 61.1739 69.6693C61.5608 69.4993 61.8106 69.1163 61.8106 68.6937V50.0472C61.8106 50.0351 61.8081 50.0231 61.8076 50.0111C61.8076 48.5085 61.8067 47.0039 61.8047 45.5023V45.4329C61.7965 42.3387 61.8336 39.1924 61.7696 36.0648L61.7588 35.7591C61.6178 32.6185 60.2816 29.9443 57.6797 28.0335L57.4092 27.8402C56.0475 26.8928 54.4711 26.1882 52.6709 26.0433C51.3071 25.8419 49.8956 25.9453 48.7198 25.9554C48.5025 25.9543 48.1754 25.9429 47.7627 25.929C47.3561 25.9154 46.8832 25.9008 46.4082 25.8949C45.935 25.889 45.445 25.8918 45.0049 25.9163C44.5876 25.9397 44.1305 25.9858 43.7657 26.097C43.3255 26.2312 43.0217 26.633 43.0117 27.0931C43.0018 27.5531 43.2879 27.9672 43.7217 28.1204C44.383 28.3539 44.8288 28.6736 45.1065 29.0218C45.3762 29.3602 45.5315 29.779 45.5323 30.3089V30.3099C45.5425 35.3494 45.5296 40.3904 45.5235 45.4339V45.4349C45.5235 46.9712 45.5197 48.5041 45.5176 50.0433Z" fill="var(--fill-0, #FFDF00)" stroke="var(--stroke-0, #0B2595)" stroke-width="2.13078" stroke-linejoin="round"/>
<rect id="Rectangle 2183" x="36.3996" y="16.6857" width="12.8732" height="11.4566" rx="2.09478" fill="var(--fill-0, #FFDF00)" stroke="var(--stroke-0, #0B2595)" stroke-width="2.13078"/>
</g>
</svg>
