<svg style="display: block;" viewBox="0 0 38.6364 30.0478" fill="none" xmlns="http://www.w3.org/2000/svg">
<g id="Group">
<path id="Vector" d="M32.9026 24.4108C30.9913 24.4108 29.2253 23.8544 27.7253 22.935C29.1527 20.6367 29.9994 17.9029 29.9994 14.9997C29.9994 6.72568 23.2737 0 14.9997 0C6.72567 0 0 6.72568 0 14.9997C0 23.2738 6.72567 29.9994 14.9997 29.9994C18.3142 29.9994 21.3867 28.9107 23.8544 27.0963C26.3947 28.9349 29.5156 30.0478 32.9026 30.0478C34.9348 30.0478 36.8703 29.6607 38.6364 28.9349V22.548C37.0396 23.7334 35.0558 24.4108 32.9026 24.4108ZM23.4915 17.8061C22.3786 16.6207 21.0722 15.5804 19.5722 14.7578C18.0964 13.9594 16.5481 13.4272 14.9997 13.1368V18.8948C15.6529 19.0884 16.2819 19.3545 16.8868 19.669C18.169 20.3706 19.2335 21.3141 20.0561 22.4028C18.6287 23.3947 16.8868 23.9754 15.0239 23.9754C10.0885 23.9995 6.07246 20.0077 6.07246 15.0723C6.07246 10.1369 10.0643 6.14504 14.9997 6.14504C19.9351 6.14504 23.927 10.1369 23.927 15.0723C23.927 16.04 23.7818 16.9594 23.4915 17.8061Z" fill="var(--fill-0, white)"/>
</g>
</svg>
