<svg preserveAspectRatio="none" width="100%" height="100%" overflow="visible" style="display: block;" viewBox="0 0 224.181 49.0001" fill="none" xmlns="http://www.w3.org/2000/svg">
<g id="Vector">
<path fill-rule="evenodd" clip-rule="evenodd" d="M89.865 7.62739L83.9142 3.66802L84.2943 10.9157L77.702 7.335L84.2845 18.9917L96.7106 11.6567L90.1281 0L89.865 7.62739Z" fill="#FDE031"/>
<path d="M21.84 10.6001V17.0681H14.28V40.0001H7.56V17.0681H0V10.6001H21.84Z" fill="white"/>
<path d="M36.0376 18.4121C38.2776 18.4121 40.1396 19.1821 41.6236 20.7221C43.1356 22.2621 43.8916 24.3901 43.8916 27.1061V40.0001H37.5916V28.0301C37.5916 26.7981 37.2416 25.8601 36.5416 25.2161C35.8696 24.5441 35.0016 24.2081 33.9376 24.2081C32.7336 24.2081 31.7816 24.5721 31.0816 25.3001C30.3816 26.0281 30.0316 27.1061 30.0316 28.5341V40.0001H23.7316V10.6001H30.0316V20.9741C31.2916 19.2661 33.2936 18.4121 36.0376 18.4121Z" fill="white"/>
<path d="M53.006 32.0201C53.734 33.9801 55.414 34.9601 58.046 34.9601C59.754 34.9601 61.098 34.4281 62.078 33.3641L67.118 36.2621C65.046 39.1461 61.994 40.5881 57.962 40.5881C54.434 40.5881 51.606 39.5381 49.478 37.4381C47.378 35.3381 46.328 32.6921 46.328 29.5001C46.328 26.3361 47.364 23.7041 49.436 21.6041C51.536 19.4761 54.224 18.4121 57.5 18.4121C60.552 18.4121 63.086 19.4761 65.102 21.6041C67.146 23.7041 68.168 26.3361 68.168 29.5001C68.168 30.3961 68.084 31.2361 67.916 32.0201H53.006ZM52.88 27.3161H61.91C61.294 25.1041 59.81 23.9981 57.458 23.9981C55.022 23.9981 53.496 25.1041 52.88 27.3161Z" fill="white"/>
<path d="M152.759 40.5881C148.363 40.5881 144.709 39.1321 141.797 36.2201C138.913 33.2801 137.471 29.6401 137.471 25.3001C137.471 20.9601 138.913 17.3341 141.797 14.4221C144.709 11.4821 148.363 10.0121 152.759 10.0121C155.391 10.0121 157.827 10.6281 160.067 11.8601C162.307 13.0641 164.071 14.7161 165.359 16.8161L159.563 20.1761C158.919 19.0281 157.995 18.1461 156.791 17.5301C155.587 16.8861 154.243 16.5641 152.759 16.5641C150.155 16.5641 148.069 17.3621 146.501 18.9581C144.961 20.5541 144.191 22.6681 144.191 25.3001C144.191 27.9321 144.961 30.0461 146.501 31.6421C148.069 33.2381 150.155 34.0361 152.759 34.0361C154.243 34.0361 155.587 33.7141 156.791 33.0701C158.023 32.4261 158.947 31.5441 159.563 30.4241L165.359 33.7841C164.099 35.8841 162.349 37.5501 160.109 38.7821C157.869 39.9861 155.419 40.5881 152.759 40.5881Z" fill="white"/>
<path d="M167.869 40.0001V9.34012H174.169V40.0001H167.869Z" fill="white"/>
<path d="M191.505 19.0001H197.805V40.0001H191.505V38.0261C190.245 39.7341 188.243 40.5881 185.499 40.5881C183.259 40.5881 181.383 39.8181 179.871 38.2781C178.387 36.7381 177.645 34.6101 177.645 31.8941V19.0001H183.945V30.9701C183.945 32.2021 184.281 33.1541 184.953 33.8261C185.653 34.4701 186.535 34.7921 187.599 34.7921C188.803 34.7921 189.755 34.4281 190.455 33.7001C191.155 32.9721 191.505 31.8941 191.505 30.4661V19.0001Z" fill="white"/>
<path d="M214.143 18.4121C216.915 18.4121 219.281 19.4901 221.241 21.6461C223.201 23.7741 224.181 26.3921 224.181 29.5001C224.181 32.6081 223.201 35.2401 221.241 37.3961C219.281 39.5241 216.915 40.5881 214.143 40.5881C211.455 40.5881 209.369 39.7341 207.885 38.0261V40.0001H201.585V10.6001H207.885V20.9741C209.369 19.2661 211.455 18.4121 214.143 18.4121ZM209.271 33.2381C210.223 34.1621 211.427 34.6241 212.883 34.6241C214.339 34.6241 215.529 34.1621 216.453 33.2381C217.405 32.3141 217.881 31.0681 217.881 29.5001C217.881 27.9321 217.405 26.6861 216.453 25.7621C215.529 24.8381 214.339 24.3761 212.883 24.3761C211.427 24.3761 210.223 24.8381 209.271 25.7621C208.347 26.6861 207.885 27.9321 207.885 29.5001C207.885 31.0681 208.347 32.3141 209.271 33.2381Z" fill="white"/>
<path d="M122.622 39.8713C120.205 39.8713 117.971 39.1676 116.074 38.005C117.88 35.0983 118.95 31.641 118.95 27.9695C118.95 17.5058 110.445 9.00012 99.981 9.00012C89.5172 9.00012 81.0116 17.5058 81.0116 27.9695C81.0116 38.4333 89.5172 46.9389 99.981 46.9389C104.173 46.9389 108.058 45.5621 111.179 43.2674C114.392 45.5927 118.338 47.0001 122.622 47.0001C125.192 47.0001 127.64 46.5106 129.873 45.5927V37.5154C127.854 39.0146 125.345 39.8713 122.622 39.8713ZM110.72 31.5186C109.313 30.0194 107.661 28.7038 105.764 27.6636C103.897 26.6539 101.939 25.9808 99.981 25.6136V32.8955C100.807 33.1402 101.603 33.4768 102.367 33.8745C103.989 34.7618 105.335 35.955 106.376 37.3318C104.57 38.5863 102.367 39.3206 100.012 39.3206C93.77 39.3512 88.6911 34.3029 88.6911 28.0613C88.6911 21.8198 93.7395 16.7715 99.981 16.7715C106.223 16.7715 111.271 21.8198 111.271 28.0613C111.271 29.2851 111.087 30.4478 110.72 31.5186Z" fill="white"/>
<path d="M118.95 27.9695C118.95 17.6691 110.801 9.26874 100.562 9.00889L99.981 9.00012C89.5172 9.00012 81.0116 17.5058 81.0116 27.9695L81.0175 28.4581C81.2732 38.5343 89.4159 46.6768 99.4921 46.9327L99.981 46.9389C104.173 46.9389 108.058 45.5621 111.179 43.2674C114.291 45.5201 118.093 46.9115 122.222 46.9962L122.622 47.0001C125.192 47.0001 127.64 46.5106 129.873 45.5927V37.5154C127.854 39.0146 125.345 39.8713 122.622 39.8713L122.622 37.8712C124.919 37.8712 127.009 37.1502 128.681 35.9093L131.873 33.5392V46.9327L130.634 47.4425C128.154 48.4614 125.448 49.0001 122.622 49.0001C118.405 49.0001 114.489 47.7628 111.185 45.6827C107.956 47.7333 104.102 48.9385 99.9813 48.9386C88.4131 48.9386 79.0118 39.538 79.0116 27.9698C79.0116 16.4015 88.413 7.00012 99.9813 7.00012C111.55 7.0003 120.95 16.4016 120.95 27.9698C120.95 31.2535 120.175 34.3782 118.826 37.1495C120.003 37.6115 121.28 37.8712 122.622 37.8712L122.622 39.8713L122.171 39.8634C119.927 39.7818 117.853 39.0949 116.074 38.005C117.767 35.28 118.814 32.0711 118.938 28.6554L118.95 27.9695ZM100.562 16.7863C106.533 17.0882 111.271 22.0148 111.271 28.0613L111.263 28.5177C111.222 29.5746 111.041 30.5818 110.72 31.5186C109.313 30.0194 107.661 28.7038 105.764 27.6636C103.897 26.6539 101.939 25.9808 99.981 25.6136V32.8955C100.807 33.1402 101.603 33.4768 102.367 33.8745C103.989 34.7618 105.335 35.955 106.376 37.3318C104.57 38.5863 102.367 39.3206 100.012 39.3206C93.965 39.3502 89.0097 34.6133 88.7059 28.6427L88.6911 28.0613C88.6911 21.8198 93.7395 16.7715 99.981 16.7715L100.562 16.7863ZM90.6913 28.0616C90.6915 33.1933 94.8674 37.3456 100.002 37.3204H100.012C101.094 37.3204 102.136 37.131 103.102 36.7853C102.588 36.3575 102.027 35.9686 101.417 35.6339C100.754 35.2911 100.087 35.0122 99.413 34.8126L97.9813 34.3888V23.2042L100.349 23.6476C102.37 24.0265 104.392 24.7017 106.329 25.7003L106.716 25.9044L106.725 25.9103C107.619 26.4002 108.462 26.9457 109.255 27.5372C108.984 22.645 104.942 18.7718 99.9813 18.7716C94.8444 18.7716 90.6913 22.9247 90.6913 28.0616Z" fill="var(--fill-0, #0B2FCB)"/>
</g>
</svg>
