<svg width="23" height="19" viewBox="0 0 23 19" fill="none" xmlns="http://www.w3.org/2000/svg">
<path d="M17.7775 1.354C17.9829 1.35402 18.1773 1.44819 18.3039 1.60986L19.2932 2.87354L20.9885 5.03662C21.146 5.23769 21.1753 5.51102 21.0637 5.74072C20.9518 5.97056 20.7177 6.1167 20.4621 6.1167L15.093 6.1167C14.8373 6.1167 14.6043 5.97055 14.4924 5.74072C14.3806 5.51105 14.4092 5.23774 14.5666 5.03662L17.2521 1.60986L17.3019 1.55225C17.4267 1.42589 17.5979 1.35406 17.7775 1.354Z" fill="#00B3FF" stroke="white" stroke-width="1.33629" stroke-linejoin="round"/>
<path d="M17.2424 1.19092C17.4979 1.19092 17.732 1.33622 17.844 1.56592C17.9559 1.79574 17.9264 2.06979 17.7688 2.271L15.0842 5.69775C14.9576 5.85939 14.7632 5.95361 14.5578 5.95361C14.3527 5.95355 14.1591 5.85917 14.0324 5.69775L11.3469 2.271C11.1894 2.0698 11.1608 1.79567 11.2727 1.56592C11.3847 1.33635 11.6178 1.19092 11.8733 1.19092L17.2424 1.19092Z" fill="#00B3FF" stroke="white" stroke-width="1.33629" stroke-linejoin="round"/>
<path d="M10.7985 1.19141C11.054 1.19141 11.2881 1.33671 11.4 1.56641C11.5119 1.79623 11.4825 2.07027 11.3248 2.27148L8.64026 5.69824C8.51361 5.85988 8.31924 5.9541 8.11389 5.9541C7.90874 5.95404 7.71511 5.85966 7.5885 5.69824L4.90295 2.27148C4.74543 2.07029 4.71687 1.79616 4.82874 1.56641C4.94072 1.33684 5.17387 1.19141 5.42932 1.19141L10.7985 1.19141Z" fill="#00B3FF" stroke="white" stroke-width="1.33629" stroke-linejoin="round"/>
<path d="M11.3365 1.35352C11.5419 1.35353 11.7363 1.4477 11.8629 1.60937L14.5465 5.03613C14.704 5.23722 14.7333 5.51053 14.6217 5.74023C14.5098 5.96989 14.2765 6.11603 14.0211 6.11621L8.65195 6.11621C8.39633 6.11621 8.16326 5.97006 8.05136 5.74023C7.93964 5.51056 7.96817 5.23725 8.12558 5.03613L10.8111 1.60937L10.8609 1.55176C10.9857 1.4254 11.1569 1.35357 11.3365 1.35352Z" fill="#00B3FF" stroke="white" stroke-width="1.33629" stroke-linejoin="round"/>
<path d="M20.4326 5.30078C20.6935 5.30078 20.931 5.4524 21.04 5.68945C21.149 5.92656 21.1094 6.20525 20.9395 6.40332L12.4248 16.3291C12.2204 16.5671 11.8779 16.6309 11.6016 16.4824C11.3251 16.3336 11.1891 16.0119 11.2754 15.71L14.1133 5.78516C14.1953 5.49842 14.4576 5.30083 14.7559 5.30078L20.4326 5.30078Z" fill="#00B3FF" stroke="white" stroke-width="1.33629" stroke-linejoin="round"/>
<path d="M14.2104 5.30078C14.42 5.30078 14.6174 5.39914 14.7437 5.56641C14.8699 5.7338 14.9106 5.95076 14.853 6.15234L11.979 16.2031C11.8971 16.4898 11.6355 16.6873 11.3374 16.6875C11.0391 16.6875 10.7768 16.4899 10.6948 16.2031L7.81982 6.15234C7.76224 5.95079 7.80298 5.73378 7.9292 5.56641C8.05546 5.39909 8.25278 5.30078 8.4624 5.30078L14.2104 5.30078Z" fill="#00B3FF" stroke="white" stroke-width="1.33629" stroke-linejoin="round"/>
<path d="M7.9187 5.30078C8.21696 5.30078 8.47928 5.49839 8.56128 5.78516L11.3992 15.71C11.4855 16.0119 11.3495 16.3336 11.073 16.4824C10.7967 16.6308 10.4541 16.5671 10.2498 16.3291L1.73511 6.40332C1.56528 6.20525 1.52555 5.92653 1.63452 5.68945C1.74354 5.45236 1.98099 5.30078 2.24194 5.30078L7.9187 5.30078Z" fill="#00B3FF" stroke="white" stroke-width="1.33629" stroke-linejoin="round"/>
<path d="M4.89355 1.354C5.09892 1.35399 5.29326 1.44821 5.41992 1.60986L8.10449 5.03662C8.26203 5.23771 8.29135 5.511 8.17969 5.74072C8.06786 5.97041 7.83454 6.11652 7.5791 6.1167L2.20996 6.1167C1.95437 6.1167 1.72128 5.97052 1.60938 5.74072C1.49766 5.51106 1.52619 5.23775 1.68359 5.03662L3.37793 2.87354L4.36816 1.60986L4.41797 1.55225C4.54268 1.42588 4.71393 1.35409 4.89355 1.354Z" fill="#00B3FF" stroke="white" stroke-width="1.33629" stroke-linejoin="round"/>
<path d="M4.08853 6.52197C4.5221 6.15004 5.16125 6.17399 5.56607 6.55908L5.64322 6.64111L8.49576 9.96533C8.49834 9.96834 8.50007 9.97205 8.50259 9.9751C8.89135 10.4376 8.83639 11.1274 8.37564 11.522L8.37466 11.5229C8.1688 11.698 7.91307 11.7866 7.65884 11.7866C7.3474 11.7866 7.03864 11.6541 6.82193 11.4028L6.82095 11.4019L3.96841 8.07764C3.57166 7.61511 3.62491 6.91897 4.08853 6.52197Z" fill="white" stroke="white" stroke-width="1.33629" stroke-linejoin="round"/>
<path d="M17.9047 0.668457L17.9808 0.672363C18.1573 0.692612 18.3202 0.78283 18.431 0.924316L20.3998 3.43799L21.7279 5.13232C21.7292 5.1339 21.7306 5.13562 21.7318 5.13721L21.8636 5.30518C22.059 5.5559 22.05 5.90962 21.8431 6.15088L11.8431 17.8071C11.7162 17.9549 11.5311 18.0396 11.3363 18.0396C11.1415 18.0396 10.9564 17.9549 10.8295 17.8071L0.829468 6.15088C0.622566 5.90962 0.613619 5.5559 0.80896 5.30518L0.940796 5.13721L0.941772 5.13525L2.27185 3.43799L4.24158 0.924316L4.29138 0.866699C4.41612 0.740343 4.58732 0.668503 4.76697 0.668457L17.9047 0.668457ZM11.3363 13.5894L13.3256 6.63721H9.34705L11.3363 13.5894ZM9.27283 13.1401L7.41345 6.63721L3.6947 6.63721L9.27283 13.1401ZM13.3988 13.1392L18.9779 6.63721H15.2582L13.3988 13.1392ZM16.4642 4.77979H19.0902L18.2416 3.69678L17.7767 3.104L16.4642 4.77979ZM10.0238 4.77979L12.6488 4.77979L11.3363 3.104L10.0238 4.77979ZM4.43689 3.68701C4.43465 3.68997 4.43332 3.69385 4.43103 3.69678L3.5824 4.77979H6.2074L4.89392 3.104L4.43689 3.68701ZM8.11462 4.20068L9.42712 2.52686H6.8031L8.11462 4.20068ZM14.557 4.20068L15.8695 2.52686L13.2455 2.52686L14.557 4.20068Z" fill="#0B2595" stroke="white" stroke-width="1.33629" stroke-linejoin="round"/>
<path d="M18.7675 3.28564L17.7777 2.02197L15.093 5.44857L20.4625 5.44857L18.7675 3.28564Z" fill="#00B3FF"/>
<path d="M14.558 5.28549L17.2428 1.85889L11.8733 1.85889L14.558 5.28549Z" fill="#00B3FF"/>
<path d="M8.1141 5.28598L10.7989 1.85937L5.42932 1.85938L8.1141 5.28598Z" fill="#00B3FF"/>
<path d="M11.3367 2.02148L8.65195 5.44809L14.0206 5.44809L11.3367 2.02148Z" fill="#00B3FF"/>
<path d="M14.756 5.96875L11.918 15.8937L20.4328 5.96875L14.756 5.96875Z" fill="#00B3FF"/>
<path d="M14.2106 5.96875L8.4624 5.96875L11.337 16.0198L14.2106 5.96875Z" fill="#00B3FF"/>
<path d="M7.91879 5.96875L2.24194 5.96875L10.7568 15.8937L7.91879 5.96875Z" fill="#00B3FF"/>
<path d="M2.20996 5.44857L7.57864 5.44857L4.89386 2.02197L3.90405 3.28564L2.20996 5.44857Z" fill="#00B3FF"/>
<path d="M7.98851 10.4002L5.13659 7.07626C4.97989 6.89363 4.7048 6.87275 4.52285 7.0293C4.34004 7.18584 4.31914 7.4598 4.47584 7.64243L7.32776 10.9664C7.41395 11.0664 7.53582 11.1186 7.65857 11.1186C7.75868 11.1186 7.85967 11.0838 7.9415 11.0142C8.12431 10.8577 8.14521 10.5837 7.98851 10.4011V10.4002Z" fill="white"/>
<path d="M21.204 5.54749L19.8738 3.84985L17.9046 1.33643L4.76714 1.33643L2.79796 3.84985L1.46776 5.54749L1.3363 5.71621L11.3363 17.3719L21.3363 5.71621L21.2048 5.54749H21.204ZM20.4623 5.44748H15.0927L17.7775 2.02088L18.7673 3.28454L20.4623 5.44748ZM14.5573 5.28484L11.8726 1.85824L17.2421 1.85824L14.5573 5.28484ZM14.0211 5.44748L8.65153 5.44748L11.3363 2.02088L14.0211 5.44748ZM14.2109 5.9693L11.3363 16.0204L8.46175 5.9693L14.2109 5.9693ZM14.7541 5.9693H20.4309L11.9161 15.8943L14.7541 5.9693ZM10.8 1.85824L8.11527 5.28484L5.4305 1.85824L10.8 1.85824ZM3.90442 3.28454L4.89424 2.02088L7.57901 5.44748L2.21034 5.44748L3.90529 3.28454H3.90442ZM7.91766 5.9693L10.7556 15.8943L2.24167 5.9693L7.91853 5.9693H7.91766Z" fill="#0B2595"/>
</svg>
