<svg preserveAspectRatio="none" width="100%" height="100%" overflow="visible" style="display: block;" viewBox="0 0 20.5 20.5" fill="none" xmlns="http://www.w3.org/2000/svg">
<g id="Vector">
<path fill-rule="evenodd" clip-rule="evenodd" d="M13.3661 13.3661C13.8543 12.878 14.6457 12.878 15.1339 13.3661L20.1339 18.3661C20.622 18.8543 20.622 19.6457 20.1339 20.1339C19.6457 20.622 18.8543 20.622 18.3661 20.1339L13.3661 15.1339C12.878 14.6457 12.878 13.8543 13.3661 13.3661Z" fill="var(--fill-0, #0A2ECB)"/>
<path fill-rule="evenodd" clip-rule="evenodd" d="M8.75 2.5C5.29822 2.5 2.5 5.29822 2.5 8.75C2.5 12.2018 5.29822 15 8.75 15C12.2018 15 15 12.2018 15 8.75C15 5.29822 12.2018 2.5 8.75 2.5ZM0 8.75C0 3.91751 3.91751 0 8.75 0C13.5825 0 17.5 3.91751 17.5 8.75C17.5 13.5825 13.5825 17.5 8.75 17.5C3.91751 17.5 0 13.5825 0 8.75Z" fill="var(--fill-0, #0A2ECB)"/>
</g>
</svg>
