<svg preserveAspectRatio="none" width="100%" height="100%" overflow="visible" style="display: block;" viewBox="0 0 24 24" fill="none" xmlns="http://www.w3.org/2000/svg">
<g id="Home Icon">
<path id="Vector" fill-rule="evenodd" clip-rule="evenodd" d="M12.4301 4.82689C12.1719 4.64612 11.8281 4.64612 11.5699 4.82689L5.25 9.25082V19C5.25 19.4142 5.58579 19.75 6 19.75H7.75V13C7.75 12.3096 8.30964 11.75 9 11.75H15C15.6904 11.75 16.25 12.3096 16.25 13V19.75H18C18.4142 19.75 18.75 19.4142 18.75 19V9.25082L12.4301 4.82689ZM21.25 11.0008L21.2832 11.024C21.8487 11.4199 22.6281 11.2824 23.024 10.7168C23.4199 10.1513 23.2824 9.37185 22.7168 8.97596L13.8638 2.77881C12.7447 1.99548 11.2553 1.99548 10.1362 2.77881L1.28317 8.97596C0.71761 9.37185 0.580067 10.1513 0.97596 10.7168C1.37185 11.2824 2.15127 11.4199 2.71683 11.024L2.75 11.0008V19C2.75 20.7949 4.20507 22.25 6 22.25H18C19.7949 22.25 21.25 20.7949 21.25 19V11.0008ZM13.75 19.75V14.25H10.25V19.75H13.75Z" fill="var(--fill-0, #0A2ECB)"/>
</g>
</svg>
