<svg preserveAspectRatio="none" width="100%" height="100%" overflow="visible" style="display: block;" viewBox="0 0 24 24" fill="none" xmlns="http://www.w3.org/2000/svg">
<g id="rewards">
<path id="Vector 1295" d="M4.5 11V18C4.5 18.8284 5.17157 19.5 6 19.5H11M4.5 11H19.5M4.5 11H3.5C3.22386 11 3 10.7761 3 10.5V9.5C3 8.39543 3.89543 7.5 5 7.5H11M19.5 11V18C19.5 18.8284 18.8284 19.5 18 19.5H13M19.5 11H20.5C20.7761 11 21 10.7761 21 10.5V9.5C21 8.39543 20.1046 7.5 19 7.5H13M11 7.5V19.5M11 7.5H12M11 19.5H12M13 7.5V19.5M13 7.5H12M13 19.5H12M12 7.5V19.5" stroke="var(--stroke-0, #0A2ECB)" stroke-width="1.5" stroke-linecap="round" stroke-linejoin="round"/>
<path id="Vector 1296" d="M12.0001 7.5L13.9896 5.11261C14.3131 4.72444 14.7923 4.5 15.2976 4.5H15.5001C16.3285 4.5 17.0001 5.17157 17.0001 6C17.0001 6.82843 16.3285 7.5 15.5001 7.5H12.0001ZM12.0001 7.5L10.0106 5.11261C9.68715 4.72444 9.20797 4.5 8.70268 4.5H8.50012C7.67169 4.5 7.00012 5.17157 7.00012 6C7.00012 6.82843 7.6717 7.5 8.50012 7.5H12.0001Z" stroke="var(--stroke-0, #0A2ECB)" stroke-width="1.5" stroke-linecap="round" stroke-linejoin="round"/>
</g>
</svg>
