<svg preserveAspectRatio="none" width="100%" height="100%" overflow="visible" style="display: block;" viewBox="0 0 20 20" fill="none" xmlns="http://www.w3.org/2000/svg">
<g id="Group 6050">
<path id="Union" d="M8.17578 5.54704C8.65783 5.30201 9.2359 5.34745 9.67285 5.6652L14.0107 8.82536C14.3817 9.09672 14.6015 9.52679 14.6016 9.98552C14.6016 10.4443 14.3817 10.8753 14.0107 11.1466L9.67285 14.3068C9.42178 14.489 9.12548 14.5812 8.82715 14.5812C8.60454 14.5812 8.38105 14.5307 8.17578 14.4259C7.69451 14.1808 7.39062 13.6862 7.39062 13.1457V6.82634C7.39078 6.28609 7.69463 5.79216 8.17578 5.54704Z" fill="var(--fill-0, #0A2ECB)"/>
<path id="Union_2" d="M14.3477 0C17.4693 0 20 2.53073 20 5.65234V14.3477C20 17.4693 17.4693 20 14.3477 20H5.65234C2.53073 20 0 17.4693 0 14.3477V5.65234C0 2.53073 2.53073 0 5.65234 0H14.3477ZM5.65234 2.17383C3.73135 2.17383 2.17383 3.73135 2.17383 5.65234V14.3477L2.17773 14.5273C2.26812 16.3055 3.69452 17.7319 5.47266 17.8223L5.65234 17.8262H14.3477L14.5273 17.8223C16.3649 17.7289 17.8262 16.2085 17.8262 14.3477V5.65234C17.8262 3.73135 16.2686 2.17383 14.3477 2.17383H5.65234Z" fill="var(--fill-0, #0A2ECB)"/>
</g>
</svg>
