<svg preserveAspectRatio="none" width="100%" height="100%" overflow="visible" style="display: block;" viewBox="0 0 24 24" fill="none" xmlns="http://www.w3.org/2000/svg">
<g id="live">
<path id="Subtract" d="M16.2227 2C19.3443 2 21.875 4.53073 21.875 7.65234V16.3477C21.875 19.4693 19.3443 22 16.2227 22H7.52734C4.40573 22 1.875 19.4693 1.875 16.3477V7.65234C1.875 4.53073 4.40573 2 7.52734 2H16.2227ZM11.5479 7.66504C11.1109 7.34735 10.5328 7.3019 10.0508 7.54688C9.56968 7.79197 9.26584 8.28599 9.26562 8.82617V15.1455C9.26562 15.686 9.56955 16.1806 10.0508 16.4258C10.2561 16.5306 10.4795 16.5811 10.7021 16.5811C11.0005 16.581 11.2968 16.4888 11.5479 16.3066L15.8857 13.1465C16.2566 12.8751 16.4766 12.4441 16.4766 11.9854C16.4765 11.5267 16.2566 11.0965 15.8857 10.8252L11.5479 7.66504Z" fill="var(--fill-0, #0A2ECB)"/>
</g>
</svg>
